<svg xmlns="http://www.w3.org/2000/svg" xmlns:xlink="http://www.w3.org/1999/xlink" width="500" zoomAndPan="magnify" viewBox="0 0 375 374.999991" height="500" preserveAspectRatio="xMidYMid meet" version="1.0"><defs><g/><clipPath id="f5361ff8cb"><path d="M 128.890625 131.101562 L 146.890625 131.101562 L 146.890625 147.601562 L 128.890625 147.601562 Z M 128.890625 131.101562 " clip-rule="nonzero"/></clipPath><clipPath id="e42727d334"><path d="M 168.472656 119.257812 L 258.007812 119.257812 L 258.007812 214.582031 L 168.472656 214.582031 Z M 168.472656 119.257812 " clip-rule="nonzero"/></clipPath><clipPath id="4a43d213af"><path d="M 116.964844 159 L 183 159 L 183 215.257812 L 116.964844 215.257812 Z M 116.964844 159 " clip-rule="nonzero"/></clipPath></defs><g clip-path="url(#f5361ff8cb)"><path fill="#eb6363" d="M 145.855469 133.066406 C 145.09375 131.664062 143.367188 131.097656 141.855469 131.28125 C 140.042969 131.5 138.59375 132.714844 137.34375 133.972656 C 136.859375 132.546875 135.515625 131.527344 134.011719 131.339844 C 132.183594 131.113281 130.535156 132.183594 129.625 133.71875 C 129.15625 134.515625 128.914062 135.433594 128.90625 136.355469 C 128.902344 136.816406 128.976562 137.253906 129.125 137.660156 C 129.355469 138.285156 129.714844 138.71875 130 139.011719 C 131.355469 140.40625 133.105469 140.765625 134.386719 142.046875 C 136.339844 144.003906 137.019531 145.375 137.523438 147.21875 C 137.644531 147.671875 138.320312 147.648438 138.496094 147.257812 C 138.898438 146.375 139.300781 145.488281 139.8125 144.664062 C 140.292969 143.886719 140.898438 143.210938 141.589844 142.613281 C 142.300781 141.996094 143.050781 141.429688 143.722656 140.765625 C 144.398438 140.101562 144.957031 139.320312 145.382812 138.476562 C 146.175781 136.90625 146.746094 134.707031 145.855469 133.066406 " fill-opacity="1" fill-rule="nonzero"/></g><path fill="#8c8164" d="M 205.207031 129.773438 C 203.800781 128.945312 202.578125 127.785156 201.675781 126.421875 C 201.027344 125.449219 199.714844 125.1875 198.742188 125.835938 C 197.769531 126.480469 197.503906 127.792969 198.152344 128.765625 C 199.410156 130.65625 201.105469 132.265625 203.058594 133.417969 C 203.800781 133.855469 204.261719 134.652344 204.265625 135.535156 C 204.265625 138.015625 203.441406 140.351562 201.890625 142.289062 C 201.738281 142.480469 201.5 142.566406 201.257812 142.519531 C 196.296875 141.46875 192.699219 137.023438 192.699219 131.941406 C 192.699219 131.722656 192.703125 131.503906 192.714844 131.289062 C 192.78125 130.121094 191.894531 129.121094 190.726562 129.054688 C 189.554688 128.976562 188.558594 129.875 188.492188 131.042969 C 188.472656 131.339844 188.464844 131.640625 188.464844 131.941406 C 188.464844 139.011719 193.476562 145.199219 200.386719 146.660156 C 200.722656 146.730469 201.0625 146.765625 201.398438 146.765625 C 202.859375 146.765625 204.253906 146.109375 205.195312 144.933594 C 207.320312 142.277344 208.496094 138.9375 208.496094 135.5 C 208.492188 133.160156 207.234375 130.964844 205.207031 129.773438 " fill-opacity="1" fill-rule="nonzero"/><g clip-path="url(#e42727d334)"><path fill="#8c8164" d="M 255.890625 183.839844 C 254.722656 183.839844 253.777344 184.789062 253.777344 185.957031 C 253.777344 194.039062 250.199219 201.679688 244.183594 206.910156 C 245.226562 201.761719 245.734375 196.382812 245.734375 190.609375 C 245.734375 166.886719 235.296875 144.535156 217.09375 129.277344 C 211.222656 124.359375 204.140625 121.015625 196.605469 119.605469 L 196.386719 119.566406 C 189.089844 118.226562 181.585938 121.308594 177.269531 127.417969 C 175.542969 129.859375 174.105469 132.027344 173 133.859375 C 171.636719 136.113281 171.429688 138.898438 172.453125 141.3125 C 172.84375 142.242188 173.257812 143.175781 173.695312 144.101562 C 172.601562 145.917969 171.34375 147.792969 169.710938 150.039062 C 168.878906 151.183594 168.585938 152.628906 168.914062 154.007812 C 169.246094 155.390625 170.15625 156.558594 171.417969 157.207031 C 173.371094 158.214844 175.382812 159.183594 176.160156 159.554688 C 179.375 161.09375 183.144531 160.972656 186.230469 159.238281 C 187.847656 158.332031 189.511719 157.472656 191.179688 156.691406 C 191.539062 156.523438 191.816406 156.683594 191.953125 156.792969 C 192.089844 156.90625 192.3125 157.152344 192.222656 157.542969 C 191.421875 161.066406 190.355469 164.566406 189.050781 167.9375 C 186.488281 174.585938 187.414062 181.941406 191.53125 187.605469 C 192.144531 188.449219 192.746094 189.3125 193.320312 190.179688 L 193.320312 209.792969 L 189.320312 209.792969 C 188.152344 209.792969 187.203125 210.742188 187.203125 211.910156 C 187.203125 213.078125 188.152344 214.023438 189.320312 214.023438 L 195.4375 214.023438 C 196.605469 214.023438 197.554688 213.078125 197.554688 211.910156 L 197.554688 189.546875 C 197.554688 189.136719 197.433594 188.734375 197.207031 188.386719 C 196.488281 187.285156 195.730469 186.1875 194.957031 185.121094 C 191.683594 180.621094 190.957031 174.765625 193 169.460938 C 194.375 165.898438 195.503906 162.203125 196.347656 158.480469 C 196.773438 156.613281 196.105469 154.703125 194.605469 153.496094 C 193.113281 152.292969 191.113281 152.050781 189.382812 152.859375 C 187.621094 153.6875 185.863281 154.589844 184.15625 155.550781 C 182.269531 156.609375 179.960938 156.683594 177.984375 155.738281 C 177.226562 155.375 175.257812 154.429688 173.359375 153.445312 C 173.132812 153.332031 173.058594 153.136719 173.03125 153.027344 C 173.003906 152.90625 172.996094 152.714844 173.132812 152.527344 C 175.144531 149.757812 176.621094 147.519531 177.921875 145.261719 C 178.269531 144.652344 178.296875 143.910156 177.992188 143.277344 C 177.414062 142.089844 176.859375 140.871094 176.347656 139.664062 C 175.855469 138.496094 175.957031 137.144531 176.617188 136.054688 C 177.675781 134.300781 179.058594 132.222656 180.726562 129.863281 C 184.09375 125.09375 189.941406 122.6875 195.621094 123.730469 L 195.835938 123.769531 C 202.648438 125.042969 209.058594 128.070312 214.375 132.523438 C 231.617188 146.96875 241.503906 168.140625 241.503906 190.609375 C 241.503906 198.101562 240.601562 204.878906 238.753906 211.324219 C 238.511719 212.152344 238.800781 213.042969 239.480469 213.574219 C 239.863281 213.875 240.324219 214.023438 240.785156 214.023438 C 241.148438 214.023438 241.511719 213.933594 241.835938 213.746094 C 251.808594 208.035156 258.007812 197.386719 258.007812 185.957031 C 258.007812 184.789062 257.058594 183.839844 255.890625 183.839844 " fill-opacity="1" fill-rule="nonzero"/></g><path fill="#8c8164" d="M 223.175781 185.671875 C 216.761719 185.671875 211.539062 190.894531 211.539062 197.308594 C 211.539062 202.417969 214.679688 206.839844 217.519531 209.792969 L 208.363281 209.792969 C 207.195312 209.792969 206.25 210.742188 206.25 211.910156 C 206.25 213.078125 207.195312 214.023438 208.363281 214.023438 L 223.175781 214.023438 C 224.101562 214.023438 224.921875 213.421875 225.195312 212.535156 C 225.472656 211.648438 225.136719 210.6875 224.371094 210.164062 C 224.285156 210.105469 215.769531 204.191406 215.769531 197.308594 C 215.769531 193.226562 219.09375 189.90625 223.175781 189.90625 C 227.257812 189.90625 230.582031 193.226562 230.582031 197.308594 C 230.582031 198.476562 231.527344 199.425781 232.695312 199.425781 C 233.867188 199.425781 234.8125 198.476562 234.8125 197.308594 C 234.8125 190.894531 229.59375 185.671875 223.175781 185.671875 " fill-opacity="1" fill-rule="nonzero"/><g clip-path="url(#4a43d213af)"><path fill="#8c8164" d="M 135.914062 205.660156 C 137.632812 203.125 140.382812 201.671875 143.457031 201.671875 C 145.503906 201.671875 149.371094 202.582031 149.371094 206.039062 C 149.371094 208.488281 146.125 210.460938 143.78125 210.945312 C 141.003906 211.523438 138.105469 210.863281 135.855469 209.140625 C 135.25 208.675781 134.710938 208.152344 134.25 207.585938 C 134.851562 207.050781 135.40625 206.410156 135.914062 205.660156 Z M 180.792969 209.773438 C 180.285156 209.773438 179.808594 209.773438 179.34375 209.769531 C 179.308594 209.769531 179.269531 209.765625 179.234375 209.765625 C 181.191406 201.863281 181.855469 193.023438 181.144531 184.007812 C 181.074219 183.09375 180.972656 182.171875 180.84375 181.257812 C 181.789062 178.613281 182.269531 175.839844 182.269531 173 L 182.269531 172.71875 C 182.230469 169.273438 179.765625 166.34375 176.402344 165.753906 C 175.84375 165.65625 175.28125 165.53125 174.726562 165.390625 C 172.449219 162.425781 169.683594 160.328125 166.492188 159.152344 C 165.960938 158.957031 165.375 158.980469 164.863281 159.21875 C 164.351562 159.460938 163.957031 159.898438 163.765625 160.429688 C 163.179688 162.082031 162.777344 163.792969 162.554688 165.53125 C 162.128906 165.742188 161.710938 165.964844 161.296875 166.195312 C 159.890625 165.597656 158.429688 165.128906 156.9375 164.804688 C 156.308594 164.664062 155.652344 164.816406 155.152344 165.226562 L 154.722656 165.570312 C 154.226562 165.972656 153.9375 166.582031 153.941406 167.222656 L 153.941406 167.636719 C 153.945312 171.050781 154.980469 174.472656 156.933594 177.527344 C 157.445312 178.328125 157.910156 179.171875 158.304688 180.035156 C 159.152344 181.886719 158.394531 184.0625 156.582031 184.988281 C 154.234375 186.1875 151.222656 186.90625 148.09375 187.023438 C 147.574219 187.039062 146.914062 187.023438 146.480469 186.976562 C 144.757812 186.789062 143.023438 186.902344 141.3125 187.308594 C 138.15625 188.050781 135.167969 189.558594 132.675781 191.660156 C 132.644531 191.691406 132.613281 191.71875 132.578125 191.75 C 132.488281 191.832031 132.40625 191.925781 132.335938 192.023438 C 129.359375 194.777344 127.800781 198.65625 128.042969 202.734375 C 128.105469 203.710938 128.273438 204.671875 128.535156 205.59375 C 128.195312 205.636719 127.84375 205.652344 127.496094 205.640625 C 125.652344 205.578125 123.992188 204.800781 122.820312 203.449219 C 121.609375 202.046875 121.03125 200.136719 121.238281 198.203125 C 121.535156 195.476562 123.074219 192.742188 125.355469 190.886719 C 125.890625 190.449219 126.554688 190.066406 127.253906 189.664062 C 129.246094 188.515625 131.972656 186.949219 132.246094 183.117188 C 132.378906 181.273438 131.746094 179.519531 130.46875 178.175781 C 129.132812 176.769531 127.222656 175.984375 125.269531 176.03125 C 122.097656 176.101562 120.335938 178.359375 119.789062 180.269531 C 119.46875 181.398438 120.121094 182.570312 121.242188 182.890625 C 122.367188 183.210938 123.535156 182.558594 123.859375 181.4375 C 124.007812 180.910156 124.390625 180.285156 125.363281 180.261719 C 126.132812 180.222656 126.886719 180.546875 127.40625 181.09375 C 127.71875 181.425781 128.082031 181.996094 128.027344 182.816406 C 127.921875 184.265625 127.152344 184.839844 125.144531 185.996094 C 124.328125 186.464844 123.484375 186.949219 122.679688 187.605469 C 119.511719 190.1875 117.457031 193.882812 117.03125 197.746094 C 116.695312 200.847656 117.640625 203.933594 119.628906 206.226562 C 121.507812 208.394531 124.128906 209.664062 127.035156 209.84375 C 127.160156 209.867188 127.289062 209.882812 127.417969 209.882812 C 127.453125 209.882812 127.488281 209.871094 127.523438 209.867188 C 128.5 209.886719 129.484375 209.773438 130.429688 209.53125 C 131.210938 210.644531 132.171875 211.648438 133.28125 212.5 C 135.746094 214.382812 138.742188 215.382812 141.792969 215.382812 C 142.742188 215.382812 143.695312 215.285156 144.640625 215.089844 C 146.515625 214.703125 148.441406 213.832031 150.023438 212.59375 C 152.539062 213.496094 155.382812 213.96875 158.328125 213.96875 C 160.117188 213.96875 161.878906 213.792969 163.558594 213.449219 C 164.703125 213.214844 165.441406 212.097656 165.207031 210.953125 C 164.972656 209.804688 163.855469 209.070312 162.710938 209.304688 C 161.308594 209.59375 159.832031 209.734375 158.328125 209.734375 C 156.429688 209.734375 154.601562 209.5 152.917969 209.058594 C 153.347656 208.125 153.601562 207.117188 153.601562 206.039062 C 153.601562 200.394531 148.5 197.4375 143.457031 197.4375 C 138.953125 197.4375 134.925781 199.570312 132.410156 203.289062 C 132.394531 203.3125 132.378906 203.332031 132.363281 203.359375 C 132.316406 203.070312 132.289062 202.777344 132.269531 202.480469 C 132.09375 199.578125 133.25 196.816406 135.445312 194.917969 C 135.535156 194.839844 135.621094 194.75 135.695312 194.65625 C 137.625 193.105469 139.894531 191.992188 142.289062 191.425781 C 143.527344 191.128906 144.785156 191.050781 146.035156 191.183594 C 146.671875 191.253906 147.519531 191.277344 148.246094 191.25 C 151.976562 191.113281 155.625 190.230469 158.507812 188.757812 C 162.34375 186.796875 163.945312 182.191406 162.152344 178.273438 C 161.675781 177.230469 161.117188 176.210938 160.496094 175.246094 C 159.359375 173.464844 158.625 171.539062 158.324219 169.582031 C 159.070312 169.84375 159.804688 170.140625 160.515625 170.488281 C 161.167969 170.804688 161.941406 170.761719 162.558594 170.371094 C 163.453125 169.808594 164.402344 169.308594 165.375 168.894531 C 166.09375 168.582031 166.582031 167.894531 166.644531 167.113281 C 166.722656 166.097656 166.875 165.09375 167.101562 164.105469 C 168.84375 165.132812 170.398438 166.59375 171.742188 168.464844 C 172.015625 168.84375 172.40625 169.121094 172.855469 169.257812 C 173.777344 169.53125 174.722656 169.757812 175.671875 169.921875 C 177.027344 170.160156 178.023438 171.355469 178.039062 172.777344 L 178.039062 173 C 178.039062 175.507812 177.585938 177.957031 176.695312 180.269531 C 176.5625 180.617188 176.519531 180.992188 176.578125 181.359375 C 176.730469 182.347656 176.847656 183.347656 176.925781 184.335938 C 177.675781 193.890625 176.816406 203.214844 174.441406 211.292969 C 174.25 211.941406 174.378906 212.640625 174.789062 213.175781 C 175.199219 213.710938 175.847656 214.007812 176.515625 214.007812 C 177.53125 213.984375 178.402344 213.992188 179.308594 214 C 179.789062 214.003906 180.273438 214.007812 180.792969 214.007812 C 181.960938 214.007812 182.90625 213.058594 182.90625 211.890625 C 182.90625 210.722656 181.960938 209.773438 180.792969 209.773438 " fill-opacity="1" fill-rule="nonzero"/></g><g fill="#8c8164" fill-opacity="1"><g transform="translate(69.538257, 249.070661)"><g><path d="M 8.5625 -0.0625 C 8.164062 -0.0625 7.8125 -0.15625 7.5 -0.34375 C 7.195312 -0.539062 6.992188 -0.816406 6.890625 -1.171875 C 6.460938 -2.585938 5.878906 -4.914062 5.140625 -8.15625 C 5.265625 -7.601562 4.976562 -8.832031 4.28125 -11.84375 C 3.75 -14.082031 3 -16.851562 2.03125 -20.15625 C 1.988281 -20.320312 1.96875 -20.488281 1.96875 -20.65625 C 1.96875 -20.9375 2.070312 -21.175781 2.28125 -21.375 C 2.5 -21.570312 2.804688 -21.671875 3.203125 -21.671875 C 3.503906 -21.671875 3.742188 -21.601562 3.921875 -21.46875 C 4.097656 -21.332031 4.226562 -21.113281 4.3125 -20.8125 C 5.289062 -17.238281 6.039062 -14.425781 6.5625 -12.375 C 6.820312 -11.289062 7.054688 -10.273438 7.265625 -9.328125 C 7.671875 -7.523438 8.007812 -6.128906 8.28125 -5.140625 C 8.550781 -4.148438 8.734375 -3.65625 8.828125 -3.65625 C 8.929688 -3.65625 9.085938 -3.878906 9.296875 -4.328125 C 9.503906 -4.785156 9.757812 -5.375 10.0625 -6.09375 L 10.828125 -7.875 L 11.109375 -8.5 C 11.765625 -10.050781 12.253906 -11.117188 12.578125 -11.703125 C 12.910156 -12.296875 13.222656 -12.59375 13.515625 -12.59375 C 13.796875 -12.59375 14.09375 -12.347656 14.40625 -11.859375 C 14.726562 -11.378906 15.203125 -10.503906 15.828125 -9.234375 C 15.984375 -8.921875 16.140625 -8.613281 16.296875 -8.3125 C 16.453125 -8.019531 16.59375 -7.753906 16.71875 -7.515625 C 16.863281 -7.242188 17.007812 -6.945312 17.15625 -6.625 C 17.3125 -6.3125 17.484375 -5.988281 17.671875 -5.65625 C 17.953125 -5.082031 18.195312 -4.601562 18.40625 -4.21875 C 18.613281 -3.84375 18.757812 -3.65625 18.84375 -3.65625 C 18.90625 -3.65625 19.046875 -4.15625 19.265625 -5.15625 C 19.492188 -6.164062 19.742188 -7.300781 20.015625 -8.5625 C 20.441406 -10.75 20.695312 -12.007812 20.78125 -12.34375 C 21.351562 -15.007812 21.988281 -17.84375 22.6875 -20.84375 C 22.75 -21.101562 22.878906 -21.300781 23.078125 -21.4375 C 23.285156 -21.570312 23.535156 -21.640625 23.828125 -21.640625 C 24.171875 -21.640625 24.460938 -21.535156 24.703125 -21.328125 C 24.941406 -21.128906 25.0625 -20.851562 25.0625 -20.5 C 25.0625 -20.375 25.050781 -20.269531 25.03125 -20.1875 C 24.394531 -17.75 23.738281 -14.976562 23.0625 -11.875 L 22.015625 -6.921875 C 21.640625 -4.972656 21.25 -3.117188 20.84375 -1.359375 C 20.65625 -0.535156 20.117188 -0.125 19.234375 -0.125 C 18.867188 -0.125 18.515625 -0.265625 18.171875 -0.546875 C 17.835938 -0.835938 17.476562 -1.300781 17.09375 -1.9375 C 16.71875 -2.570312 16.222656 -3.503906 15.609375 -4.734375 C 15.296875 -5.347656 14.9375 -6.148438 14.53125 -7.140625 C 14.34375 -7.585938 14.164062 -7.984375 14 -8.328125 C 13.84375 -8.679688 13.734375 -8.859375 13.671875 -8.859375 C 13.546875 -8.859375 13.207031 -8.148438 12.65625 -6.734375 C 12.175781 -5.546875 11.847656 -4.75 11.671875 -4.34375 C 11.128906 -3.132812 10.691406 -2.226562 10.359375 -1.625 C 10.035156 -1.03125 9.738281 -0.617188 9.46875 -0.390625 C 9.207031 -0.171875 8.90625 -0.0625 8.5625 -0.0625 Z M 8.5625 -0.0625 "/></g></g></g><g fill="#8c8164" fill-opacity="1"><g transform="translate(96.557401, 249.070661)"><g><path d="M 15.390625 -11.703125 C 15.679688 -10.546875 15.875 -9.113281 15.96875 -7.40625 C 16.070312 -5.707031 16.125 -3.546875 16.125 -0.921875 C 16.125 -0.648438 16.015625 -0.425781 15.796875 -0.25 C 15.585938 -0.0820312 15.304688 0 14.953125 0 C 14.609375 0 14.328125 -0.0820312 14.109375 -0.25 C 13.898438 -0.425781 13.796875 -0.691406 13.796875 -1.046875 C 13.796875 -6.441406 13.566406 -9.867188 13.109375 -11.328125 C 12.867188 -12.171875 12.515625 -12.78125 12.046875 -13.15625 C 11.585938 -13.539062 10.96875 -13.734375 10.1875 -13.734375 C 9.125 -13.734375 8.222656 -13.414062 7.484375 -12.78125 C 6.742188 -12.15625 6.1875 -11.359375 5.8125 -10.390625 C 5.445312 -9.429688 5.265625 -8.429688 5.265625 -7.390625 L 5.265625 -0.890625 C 5.265625 -0.640625 5.148438 -0.429688 4.921875 -0.265625 C 4.703125 -0.109375 4.425781 -0.03125 4.09375 -0.03125 C 3.75 -0.03125 3.46875 -0.109375 3.25 -0.265625 C 3.03125 -0.429688 2.921875 -0.648438 2.921875 -0.921875 C 2.921875 -5.171875 2.972656 -9.171875 3.078125 -12.921875 C 3.179688 -16.285156 3.347656 -19.675781 3.578125 -23.09375 C 3.628906 -23.800781 4.015625 -24.15625 4.734375 -24.15625 C 5.066406 -24.15625 5.335938 -24.078125 5.546875 -23.921875 C 5.765625 -23.773438 5.863281 -23.566406 5.84375 -23.296875 L 5.640625 -18.984375 C 5.515625 -16.335938 5.410156 -14.410156 5.328125 -13.203125 C 5.835938 -13.960938 6.515625 -14.59375 7.359375 -15.09375 C 8.203125 -15.601562 9.25 -15.859375 10.5 -15.859375 C 11.851562 -15.859375 12.914062 -15.519531 13.6875 -14.84375 C 14.457031 -14.164062 15.023438 -13.117188 15.390625 -11.703125 Z M 15.390625 -11.703125 "/></g></g></g><g fill="#8c8164" fill-opacity="1"><g transform="translate(113.913669, 249.070661)"><g><path d="M 5.171875 -17.421875 C 4.640625 -17.421875 4.1875 -17.597656 3.8125 -17.953125 C 3.445312 -18.316406 3.265625 -18.773438 3.265625 -19.328125 C 3.265625 -19.878906 3.445312 -20.332031 3.8125 -20.6875 C 4.1875 -21.050781 4.660156 -21.234375 5.234375 -21.234375 C 5.785156 -21.234375 6.238281 -21.054688 6.59375 -20.703125 C 6.957031 -20.359375 7.140625 -19.910156 7.140625 -19.359375 C 7.140625 -18.804688 6.945312 -18.34375 6.5625 -17.96875 C 6.1875 -17.601562 5.722656 -17.421875 5.171875 -17.421875 Z M 4.703125 -0.1875 C 4.335938 -0.1875 4.046875 -0.273438 3.828125 -0.453125 C 3.617188 -0.640625 3.515625 -0.890625 3.515625 -1.203125 L 3.8125 -14.28125 C 3.8125 -14.632812 3.921875 -14.898438 4.140625 -15.078125 C 4.359375 -15.265625 4.648438 -15.359375 5.015625 -15.359375 C 5.390625 -15.359375 5.679688 -15.265625 5.890625 -15.078125 C 6.109375 -14.898438 6.21875 -14.625 6.21875 -14.25 L 5.90625 -1.203125 C 5.882812 -0.867188 5.765625 -0.613281 5.546875 -0.4375 C 5.335938 -0.269531 5.054688 -0.1875 4.703125 -0.1875 Z M 4.703125 -0.1875 "/></g></g></g><g fill="#8c8164" fill-opacity="1"><g transform="translate(123.330371, 249.070661)"><g><path d="M 7.546875 0.15625 C 6.148438 0.15625 4.957031 -0.1875 3.96875 -0.875 C 2.988281 -1.5625 2.21875 -2.441406 1.65625 -3.515625 C 1.519531 -3.796875 1.453125 -3.988281 1.453125 -4.09375 C 1.453125 -4.382812 1.578125 -4.632812 1.828125 -4.84375 C 2.085938 -5.0625 2.367188 -5.171875 2.671875 -5.171875 C 2.878906 -5.171875 3.039062 -5.113281 3.15625 -5 C 3.269531 -4.882812 3.425781 -4.6875 3.625 -4.40625 C 4.144531 -3.625 4.691406 -3 5.265625 -2.53125 C 5.835938 -2.070312 6.597656 -1.84375 7.546875 -1.84375 C 8.421875 -1.84375 9.148438 -2.054688 9.734375 -2.484375 C 10.328125 -2.921875 10.625 -3.46875 10.625 -4.125 C 10.625 -4.59375 10.460938 -4.988281 10.140625 -5.3125 C 9.828125 -5.644531 9.4375 -5.914062 8.96875 -6.125 C 8.507812 -6.332031 7.847656 -6.585938 6.984375 -6.890625 C 5.898438 -7.285156 5.023438 -7.640625 4.359375 -7.953125 C 3.691406 -8.273438 3.117188 -8.726562 2.640625 -9.3125 C 2.171875 -9.894531 1.9375 -10.640625 1.9375 -11.546875 C 1.9375 -12.347656 2.15625 -13.09375 2.59375 -13.78125 C 3.039062 -14.46875 3.671875 -15.015625 4.484375 -15.421875 C 5.304688 -15.828125 6.253906 -16.03125 7.328125 -16.03125 C 8.390625 -16.03125 9.332031 -15.828125 10.15625 -15.421875 C 10.976562 -15.015625 11.613281 -14.472656 12.0625 -13.796875 C 12.519531 -13.117188 12.75 -12.367188 12.75 -11.546875 C 12.75 -11.128906 12.671875 -10.828125 12.515625 -10.640625 C 12.359375 -10.460938 12.085938 -10.375 11.703125 -10.375 C 11.285156 -10.375 11.007812 -10.445312 10.875 -10.59375 C 10.75 -10.75 10.675781 -10.953125 10.65625 -11.203125 C 10.570312 -12.171875 10.226562 -12.882812 9.625 -13.34375 C 9.03125 -13.800781 8.265625 -14.03125 7.328125 -14.03125 C 6.210938 -14.03125 5.425781 -13.769531 4.96875 -13.25 C 4.507812 -12.726562 4.28125 -12.171875 4.28125 -11.578125 C 4.28125 -10.878906 4.582031 -10.335938 5.1875 -9.953125 C 5.789062 -9.578125 6.726562 -9.164062 8 -8.71875 C 9.09375 -8.320312 9.96875 -7.957031 10.625 -7.625 C 11.28125 -7.300781 11.835938 -6.851562 12.296875 -6.28125 C 12.753906 -5.707031 12.984375 -4.988281 12.984375 -4.125 C 12.984375 -2.789062 12.457031 -1.742188 11.40625 -0.984375 C 10.363281 -0.222656 9.078125 0.15625 7.546875 0.15625 Z M 7.546875 0.15625 "/></g></g></g><g fill="#8c8164" fill-opacity="1"><g transform="translate(138.286299, 249.070661)"><g><path d="M 4.0625 0.15625 C 3.738281 0.15625 3.460938 0.0703125 3.234375 -0.09375 C 3.003906 -0.257812 2.890625 -0.460938 2.890625 -0.703125 L 2.890625 -22.46875 C 2.890625 -22.800781 2.992188 -23.054688 3.203125 -23.234375 C 3.410156 -23.421875 3.695312 -23.515625 4.0625 -23.515625 C 4.4375 -23.515625 4.726562 -23.425781 4.9375 -23.25 C 5.15625 -23.082031 5.265625 -22.820312 5.265625 -22.46875 L 5.203125 -11.578125 L 7.453125 -12.828125 C 10.546875 -14.578125 12.597656 -15.757812 13.609375 -16.375 C 13.910156 -16.5625 14.144531 -16.65625 14.3125 -16.65625 C 14.601562 -16.65625 14.851562 -16.503906 15.0625 -16.203125 C 15.28125 -15.910156 15.390625 -15.585938 15.390625 -15.234375 C 15.390625 -15.003906 15.164062 -14.757812 14.71875 -14.5 L 5.234375 -8.859375 L 14.84375 -2.03125 C 15.039062 -1.863281 15.140625 -1.640625 15.140625 -1.359375 C 15.140625 -1.046875 15.007812 -0.757812 14.75 -0.5 C 14.5 -0.25 14.238281 -0.125 13.96875 -0.125 C 13.726562 -0.125 13.421875 -0.238281 13.046875 -0.46875 L 9.875 -2.671875 C 8.382812 -3.785156 6.835938 -4.882812 5.234375 -5.96875 L 5.203125 -0.734375 C 5.203125 -0.472656 5.09375 -0.257812 4.875 -0.09375 C 4.664062 0.0703125 4.394531 0.15625 4.0625 0.15625 Z M 4.0625 0.15625 "/></g></g></g><g fill="#8c8164" fill-opacity="1"><g transform="translate(154.627042, 249.070661)"><g><path d="M 9.84375 0.125 C 8.164062 0.125 6.710938 -0.238281 5.484375 -0.96875 C 4.265625 -1.695312 3.34375 -2.660156 2.71875 -3.859375 C 2.09375 -5.054688 1.78125 -6.363281 1.78125 -7.78125 C 1.78125 -9.238281 2.109375 -10.578125 2.765625 -11.796875 C 3.421875 -13.023438 4.351562 -14 5.5625 -14.71875 C 6.78125 -15.4375 8.175781 -15.796875 9.75 -15.796875 C 11.144531 -15.796875 12.394531 -15.507812 13.5 -14.9375 C 14.613281 -14.375 15.476562 -13.585938 16.09375 -12.578125 C 16.707031 -11.578125 17.015625 -10.429688 17.015625 -9.140625 C 17.015625 -8.523438 16.941406 -8.085938 16.796875 -7.828125 C 16.660156 -7.578125 16.304688 -7.441406 15.734375 -7.421875 L 4 -7.171875 C 4 -6.390625 4.234375 -5.585938 4.703125 -4.765625 C 5.179688 -3.953125 5.851562 -3.265625 6.71875 -2.703125 C 7.59375 -2.148438 8.601562 -1.875 9.75 -1.875 C 10.613281 -1.875 11.351562 -2 11.96875 -2.25 C 12.582031 -2.507812 13.0625 -2.800781 13.40625 -3.125 C 13.757812 -3.457031 14.1875 -3.925781 14.6875 -4.53125 C 14.820312 -4.707031 15.046875 -4.796875 15.359375 -4.796875 C 15.628906 -4.796875 15.878906 -4.691406 16.109375 -4.484375 C 16.347656 -4.285156 16.46875 -4.050781 16.46875 -3.78125 C 16.46875 -3.582031 16.382812 -3.367188 16.21875 -3.140625 C 15.5625 -2.234375 14.765625 -1.460938 13.828125 -0.828125 C 12.898438 -0.191406 11.570312 0.125 9.84375 0.125 Z M 14.71875 -9.296875 C 14.914062 -9.296875 15.015625 -9.441406 15.015625 -9.734375 C 15.015625 -10.960938 14.519531 -11.957031 13.53125 -12.71875 C 12.550781 -13.488281 11.3125 -13.875 9.8125 -13.875 C 8.6875 -13.875 7.679688 -13.585938 6.796875 -13.015625 C 5.921875 -12.441406 5.234375 -11.765625 4.734375 -10.984375 C 4.242188 -10.203125 4 -9.546875 4 -9.015625 Z M 14.71875 -9.296875 "/></g></g></g><g fill="#8c8164" fill-opacity="1"><g transform="translate(173.675846, 249.070661)"><g><path d="M 9.421875 -15.828125 C 10.734375 -15.828125 11.757812 -15.410156 12.5 -14.578125 C 13.238281 -13.742188 13.609375 -12.734375 13.609375 -11.546875 C 13.609375 -10.410156 13.269531 -9.519531 12.59375 -8.875 C 11.914062 -8.226562 11.039062 -7.90625 9.96875 -7.90625 C 9.5625 -7.90625 9.269531 -7.96875 9.09375 -8.09375 C 8.914062 -8.21875 8.828125 -8.441406 8.828125 -8.765625 C 8.828125 -9.304688 9.085938 -9.585938 9.609375 -9.609375 C 10.941406 -9.722656 11.609375 -10.378906 11.609375 -11.578125 C 11.609375 -12.210938 11.429688 -12.753906 11.078125 -13.203125 C 10.734375 -13.648438 10.171875 -13.875 9.390625 -13.875 C 8.566406 -13.875 7.851562 -13.523438 7.25 -12.828125 C 6.644531 -12.140625 6.164062 -11.273438 5.8125 -10.234375 C 5.46875 -9.203125 5.265625 -8.179688 5.203125 -7.171875 C 5.078125 -5.285156 5.015625 -3.5 5.015625 -1.8125 C 5.015625 -0.96875 4.9375 -0.410156 4.78125 -0.140625 C 4.632812 0.117188 4.332031 0.25 3.875 0.25 C 3.425781 0.25 3.113281 0.140625 2.9375 -0.078125 C 2.757812 -0.296875 2.671875 -0.671875 2.671875 -1.203125 L 2.640625 -7.078125 C 2.640625 -8.429688 2.539062 -10.21875 2.34375 -12.4375 C 2.21875 -13.726562 2.144531 -14.648438 2.125 -15.203125 C 2.101562 -15.535156 2.191406 -15.785156 2.390625 -15.953125 C 2.597656 -16.128906 2.890625 -16.21875 3.265625 -16.21875 C 3.898438 -16.21875 4.238281 -15.910156 4.28125 -15.296875 C 4.40625 -14.003906 4.476562 -12.742188 4.5 -11.515625 C 4.84375 -12.867188 5.445312 -13.925781 6.3125 -14.6875 C 7.175781 -15.445312 8.210938 -15.828125 9.421875 -15.828125 Z M 9.421875 -15.828125 "/></g></g></g><g fill="#8c8164" fill-opacity="1"><g transform="translate(189.124156, 249.070661)"><g><path d="M 8.5625 -0.0625 C 8.164062 -0.0625 7.8125 -0.15625 7.5 -0.34375 C 7.195312 -0.539062 6.992188 -0.816406 6.890625 -1.171875 C 6.460938 -2.585938 5.878906 -4.914062 5.140625 -8.15625 C 5.265625 -7.601562 4.976562 -8.832031 4.28125 -11.84375 C 3.75 -14.082031 3 -16.851562 2.03125 -20.15625 C 1.988281 -20.320312 1.96875 -20.488281 1.96875 -20.65625 C 1.96875 -20.9375 2.070312 -21.175781 2.28125 -21.375 C 2.5 -21.570312 2.804688 -21.671875 3.203125 -21.671875 C 3.503906 -21.671875 3.742188 -21.601562 3.921875 -21.46875 C 4.097656 -21.332031 4.226562 -21.113281 4.3125 -20.8125 C 5.289062 -17.238281 6.039062 -14.425781 6.5625 -12.375 C 6.820312 -11.289062 7.054688 -10.273438 7.265625 -9.328125 C 7.671875 -7.523438 8.007812 -6.128906 8.28125 -5.140625 C 8.550781 -4.148438 8.734375 -3.65625 8.828125 -3.65625 C 8.929688 -3.65625 9.085938 -3.878906 9.296875 -4.328125 C 9.503906 -4.785156 9.757812 -5.375 10.0625 -6.09375 L 10.828125 -7.875 L 11.109375 -8.5 C 11.765625 -10.050781 12.253906 -11.117188 12.578125 -11.703125 C 12.910156 -12.296875 13.222656 -12.59375 13.515625 -12.59375 C 13.796875 -12.59375 14.09375 -12.347656 14.40625 -11.859375 C 14.726562 -11.378906 15.203125 -10.503906 15.828125 -9.234375 C 15.984375 -8.921875 16.140625 -8.613281 16.296875 -8.3125 C 16.453125 -8.019531 16.59375 -7.753906 16.71875 -7.515625 C 16.863281 -7.242188 17.007812 -6.945312 17.15625 -6.625 C 17.3125 -6.3125 17.484375 -5.988281 17.671875 -5.65625 C 17.953125 -5.082031 18.195312 -4.601562 18.40625 -4.21875 C 18.613281 -3.84375 18.757812 -3.65625 18.84375 -3.65625 C 18.90625 -3.65625 19.046875 -4.15625 19.265625 -5.15625 C 19.492188 -6.164062 19.742188 -7.300781 20.015625 -8.5625 C 20.441406 -10.75 20.695312 -12.007812 20.78125 -12.34375 C 21.351562 -15.007812 21.988281 -17.84375 22.6875 -20.84375 C 22.75 -21.101562 22.878906 -21.300781 23.078125 -21.4375 C 23.285156 -21.570312 23.535156 -21.640625 23.828125 -21.640625 C 24.171875 -21.640625 24.460938 -21.535156 24.703125 -21.328125 C 24.941406 -21.128906 25.0625 -20.851562 25.0625 -20.5 C 25.0625 -20.375 25.050781 -20.269531 25.03125 -20.1875 C 24.394531 -17.75 23.738281 -14.976562 23.0625 -11.875 L 22.015625 -6.921875 C 21.640625 -4.972656 21.25 -3.117188 20.84375 -1.359375 C 20.65625 -0.535156 20.117188 -0.125 19.234375 -0.125 C 18.867188 -0.125 18.515625 -0.265625 18.171875 -0.546875 C 17.835938 -0.835938 17.476562 -1.300781 17.09375 -1.9375 C 16.71875 -2.570312 16.222656 -3.503906 15.609375 -4.734375 C 15.296875 -5.347656 14.9375 -6.148438 14.53125 -7.140625 C 14.34375 -7.585938 14.164062 -7.984375 14 -8.328125 C 13.84375 -8.679688 13.734375 -8.859375 13.671875 -8.859375 C 13.546875 -8.859375 13.207031 -8.148438 12.65625 -6.734375 C 12.175781 -5.546875 11.847656 -4.75 11.671875 -4.34375 C 11.128906 -3.132812 10.691406 -2.226562 10.359375 -1.625 C 10.035156 -1.03125 9.738281 -0.617188 9.46875 -0.390625 C 9.207031 -0.171875 8.90625 -0.0625 8.5625 -0.0625 Z M 8.5625 -0.0625 "/></g></g></g><g fill="#8c8164" fill-opacity="1"><g transform="translate(216.1433, 249.070661)"><g><path d="M 9.171875 0.03125 C 6.847656 0.03125 4.921875 -0.582031 3.390625 -1.8125 C 1.867188 -3.039062 1.109375 -4.972656 1.109375 -7.609375 C 1.109375 -9.242188 1.421875 -10.679688 2.046875 -11.921875 C 2.671875 -13.171875 3.578125 -14.144531 4.765625 -14.84375 C 5.960938 -15.539062 7.367188 -15.890625 8.984375 -15.890625 C 10.546875 -15.890625 11.945312 -15.5625 13.1875 -14.90625 C 14.425781 -14.257812 15.398438 -13.316406 16.109375 -12.078125 C 16.816406 -10.835938 17.171875 -9.359375 17.171875 -7.640625 C 17.171875 -5.128906 16.4375 -3.222656 14.96875 -1.921875 C 13.507812 -0.617188 11.578125 0.03125 9.171875 0.03125 Z M 9.109375 -1.90625 C 10.753906 -1.90625 12.113281 -2.390625 13.1875 -3.359375 C 14.269531 -4.335938 14.8125 -5.773438 14.8125 -7.671875 C 14.8125 -8.898438 14.566406 -9.988281 14.078125 -10.9375 C 13.597656 -11.894531 12.921875 -12.632812 12.046875 -13.15625 C 11.179688 -13.675781 10.179688 -13.9375 9.046875 -13.9375 C 7.367188 -13.9375 6.019531 -13.363281 5 -12.21875 C 3.988281 -11.070312 3.484375 -9.554688 3.484375 -7.671875 C 3.484375 -5.671875 4.023438 -4.207031 5.109375 -3.28125 C 6.191406 -2.363281 7.523438 -1.90625 9.109375 -1.90625 Z M 9.109375 -1.90625 "/></g></g></g><g fill="#8c8164" fill-opacity="1"><g transform="translate(234.392002, 249.070661)"><g><path d="M 9.78125 -15.671875 C 13.25 -15.671875 14.984375 -13.21875 14.984375 -8.3125 L 14.984375 -1.109375 C 14.984375 -0.390625 14.609375 -0.03125 13.859375 -0.03125 C 13.035156 -0.03125 12.625 -0.378906 12.625 -1.078125 L 12.625 -8.34375 C 12.625 -10.144531 12.414062 -11.472656 12 -12.328125 C 11.59375 -13.179688 10.851562 -13.609375 9.78125 -13.609375 C 8.65625 -13.609375 7.734375 -13.175781 7.015625 -12.3125 C 6.296875 -11.445312 5.796875 -10.316406 5.515625 -8.921875 C 5.328125 -7.984375 5.234375 -6.828125 5.234375 -5.453125 L 5.265625 -0.890625 C 5.265625 -0.609375 5.160156 -0.390625 4.953125 -0.234375 C 4.742188 -0.078125 4.46875 0 4.125 0 C 3.738281 0 3.441406 -0.0820312 3.234375 -0.25 C 3.023438 -0.414062 2.921875 -0.628906 2.921875 -0.890625 C 2.921875 -2.710938 2.878906 -4.941406 2.796875 -7.578125 C 2.734375 -9.085938 2.703125 -10.429688 2.703125 -11.609375 C 2.703125 -12.117188 2.644531 -12.519531 2.53125 -12.8125 C 2.425781 -13.113281 2.207031 -13.53125 1.875 -14.0625 C 1.789062 -14.1875 1.75 -14.332031 1.75 -14.5 C 1.75 -14.75 1.882812 -14.976562 2.15625 -15.1875 C 2.4375 -15.40625 2.710938 -15.515625 2.984375 -15.515625 C 3.253906 -15.515625 3.53125 -15.316406 3.8125 -14.921875 C 4.039062 -14.597656 4.25 -14.203125 4.4375 -13.734375 C 4.632812 -13.273438 4.734375 -12.84375 4.734375 -12.4375 L 4.734375 -12.09375 C 5.109375 -13.125 5.703125 -13.976562 6.515625 -14.65625 C 7.335938 -15.332031 8.425781 -15.671875 9.78125 -15.671875 Z M 9.78125 -15.671875 "/></g></g></g><g fill="#8c8164" fill-opacity="1"><g transform="translate(251.440527, 249.070661)"><g><path d="M 9.640625 0.125 C 8.203125 0.125 6.882812 -0.160156 5.6875 -0.734375 C 4.5 -1.304688 3.546875 -2.1875 2.828125 -3.375 C 2.109375 -4.570312 1.75 -6.050781 1.75 -7.8125 C 1.75 -9.414062 2.078125 -10.800781 2.734375 -11.96875 C 3.390625 -13.144531 4.316406 -14.046875 5.515625 -14.671875 C 6.722656 -15.296875 8.128906 -15.609375 9.734375 -15.609375 C 10.878906 -15.609375 11.882812 -15.4375 12.75 -15.09375 C 13.625 -14.757812 14.320312 -14.328125 14.84375 -13.796875 L 14.84375 -14.4375 C 14.914062 -17.65625 14.976562 -20.003906 15.03125 -21.484375 C 15.082031 -22.960938 15.179688 -24.441406 15.328125 -25.921875 C 15.367188 -26.203125 15.488281 -26.4375 15.6875 -26.625 C 15.894531 -26.8125 16.164062 -26.90625 16.5 -26.90625 C 16.863281 -26.90625 17.160156 -26.804688 17.390625 -26.609375 C 17.617188 -26.410156 17.722656 -26.160156 17.703125 -25.859375 C 17.554688 -24.359375 17.421875 -21.78125 17.296875 -18.125 C 17.171875 -14.476562 17.109375 -11.1875 17.109375 -8.25 C 17.109375 -5.25 17.179688 -3.523438 17.328125 -3.078125 C 17.453125 -2.628906 17.597656 -2.253906 17.765625 -1.953125 C 17.941406 -1.660156 18.132812 -1.515625 18.34375 -1.515625 C 18.40625 -1.515625 18.4375 -1.398438 18.4375 -1.171875 C 18.4375 -0.859375 18.300781 -0.578125 18.03125 -0.328125 C 17.769531 -0.0859375 17.472656 0.03125 17.140625 0.03125 C 16.921875 0.03125 16.726562 -0.0195312 16.5625 -0.125 C 16.269531 -0.289062 15.972656 -0.5625 15.671875 -0.9375 C 15.378906 -1.320312 15.179688 -1.851562 15.078125 -2.53125 C 14.566406 -1.707031 13.828125 -1.054688 12.859375 -0.578125 C 11.898438 -0.109375 10.828125 0.125 9.640625 0.125 Z M 9.578125 -1.96875 C 10.453125 -1.96875 11.285156 -2.15625 12.078125 -2.53125 C 12.867188 -2.914062 13.507812 -3.429688 14 -4.078125 C 14.5 -4.722656 14.75 -5.425781 14.75 -6.1875 C 14.75 -7.09375 14.757812 -7.8125 14.78125 -8.34375 L 14.8125 -10.890625 C 14.457031 -11.546875 13.816406 -12.148438 12.890625 -12.703125 C 11.972656 -13.265625 10.921875 -13.546875 9.734375 -13.546875 C 8.023438 -13.546875 6.65625 -13.03125 5.625 -12 C 4.601562 -10.976562 4.09375 -9.550781 4.09375 -7.71875 C 4.09375 -6.40625 4.363281 -5.316406 4.90625 -4.453125 C 5.445312 -3.597656 6.140625 -2.96875 6.984375 -2.5625 C 7.828125 -2.164062 8.691406 -1.96875 9.578125 -1.96875 Z M 9.578125 -1.96875 "/></g></g></g><g fill="#8c8164" fill-opacity="1"><g transform="translate(270.95094, 249.070661)"><g><path d="M 9.84375 0.125 C 8.164062 0.125 6.710938 -0.238281 5.484375 -0.96875 C 4.265625 -1.695312 3.34375 -2.660156 2.71875 -3.859375 C 2.09375 -5.054688 1.78125 -6.363281 1.78125 -7.78125 C 1.78125 -9.238281 2.109375 -10.578125 2.765625 -11.796875 C 3.421875 -13.023438 4.351562 -14 5.5625 -14.71875 C 6.78125 -15.4375 8.175781 -15.796875 9.75 -15.796875 C 11.144531 -15.796875 12.394531 -15.507812 13.5 -14.9375 C 14.613281 -14.375 15.476562 -13.585938 16.09375 -12.578125 C 16.707031 -11.578125 17.015625 -10.429688 17.015625 -9.140625 C 17.015625 -8.523438 16.941406 -8.085938 16.796875 -7.828125 C 16.660156 -7.578125 16.304688 -7.441406 15.734375 -7.421875 L 4 -7.171875 C 4 -6.390625 4.234375 -5.585938 4.703125 -4.765625 C 5.179688 -3.953125 5.851562 -3.265625 6.71875 -2.703125 C 7.59375 -2.148438 8.601562 -1.875 9.75 -1.875 C 10.613281 -1.875 11.351562 -2 11.96875 -2.25 C 12.582031 -2.507812 13.0625 -2.800781 13.40625 -3.125 C 13.757812 -3.457031 14.1875 -3.925781 14.6875 -4.53125 C 14.820312 -4.707031 15.046875 -4.796875 15.359375 -4.796875 C 15.628906 -4.796875 15.878906 -4.691406 16.109375 -4.484375 C 16.347656 -4.285156 16.46875 -4.050781 16.46875 -3.78125 C 16.46875 -3.582031 16.382812 -3.367188 16.21875 -3.140625 C 15.5625 -2.234375 14.765625 -1.460938 13.828125 -0.828125 C 12.898438 -0.191406 11.570312 0.125 9.84375 0.125 Z M 14.71875 -9.296875 C 14.914062 -9.296875 15.015625 -9.441406 15.015625 -9.734375 C 15.015625 -10.960938 14.519531 -11.957031 13.53125 -12.71875 C 12.550781 -13.488281 11.3125 -13.875 9.8125 -13.875 C 8.6875 -13.875 7.679688 -13.585938 6.796875 -13.015625 C 5.921875 -12.441406 5.234375 -11.765625 4.734375 -10.984375 C 4.242188 -10.203125 4 -9.546875 4 -9.015625 Z M 14.71875 -9.296875 "/></g></g></g><g fill="#8c8164" fill-opacity="1"><g transform="translate(289.999744, 249.070661)"><g><path d="M 9.421875 -15.828125 C 10.734375 -15.828125 11.757812 -15.410156 12.5 -14.578125 C 13.238281 -13.742188 13.609375 -12.734375 13.609375 -11.546875 C 13.609375 -10.410156 13.269531 -9.519531 12.59375 -8.875 C 11.914062 -8.226562 11.039062 -7.90625 9.96875 -7.90625 C 9.5625 -7.90625 9.269531 -7.96875 9.09375 -8.09375 C 8.914062 -8.21875 8.828125 -8.441406 8.828125 -8.765625 C 8.828125 -9.304688 9.085938 -9.585938 9.609375 -9.609375 C 10.941406 -9.722656 11.609375 -10.378906 11.609375 -11.578125 C 11.609375 -12.210938 11.429688 -12.753906 11.078125 -13.203125 C 10.734375 -13.648438 10.171875 -13.875 9.390625 -13.875 C 8.566406 -13.875 7.851562 -13.523438 7.25 -12.828125 C 6.644531 -12.140625 6.164062 -11.273438 5.8125 -10.234375 C 5.46875 -9.203125 5.265625 -8.179688 5.203125 -7.171875 C 5.078125 -5.285156 5.015625 -3.5 5.015625 -1.8125 C 5.015625 -0.96875 4.9375 -0.410156 4.78125 -0.140625 C 4.632812 0.117188 4.332031 0.25 3.875 0.25 C 3.425781 0.25 3.113281 0.140625 2.9375 -0.078125 C 2.757812 -0.296875 2.671875 -0.671875 2.671875 -1.203125 L 2.640625 -7.078125 C 2.640625 -8.429688 2.539062 -10.21875 2.34375 -12.4375 C 2.21875 -13.726562 2.144531 -14.648438 2.125 -15.203125 C 2.101562 -15.535156 2.191406 -15.785156 2.390625 -15.953125 C 2.597656 -16.128906 2.890625 -16.21875 3.265625 -16.21875 C 3.898438 -16.21875 4.238281 -15.910156 4.28125 -15.296875 C 4.40625 -14.003906 4.476562 -12.742188 4.5 -11.515625 C 4.84375 -12.867188 5.445312 -13.925781 6.3125 -14.6875 C 7.175781 -15.445312 8.210938 -15.828125 9.421875 -15.828125 Z M 9.421875 -15.828125 "/></g></g></g></svg>