<svg xmlns="http://www.w3.org/2000/svg" xmlns:xlink="http://www.w3.org/1999/xlink" width="500" zoomAndPan="magnify" viewBox="0 0 375 374.999991" height="500" preserveAspectRatio="xMidYMid meet" version="1.0"><defs><g/><clipPath id="1bc735c298"><path d="M 95.726562 98.519531 L 124 98.519531 L 124 124.550781 L 95.726562 124.550781 Z M 95.726562 98.519531 " clip-rule="nonzero"/></clipPath><clipPath id="7a97a72a6b"><path d="M 158.175781 79.835938 L 299.433594 79.835938 L 299.433594 230 L 158.175781 230 Z M 158.175781 79.835938 " clip-rule="nonzero"/></clipPath><clipPath id="f92bfc3557"><path d="M 76.914062 142 L 181 142 L 181 231.292969 L 76.914062 231.292969 Z M 76.914062 142 " clip-rule="nonzero"/></clipPath></defs><g clip-path="url(#1bc735c298)"><path fill="#eb6363" d="M 122.488281 101.617188 C 121.289062 99.410156 118.566406 98.515625 116.179688 98.804688 C 113.320312 99.152344 111.039062 101.066406 109.0625 103.050781 C 108.296875 100.800781 106.179688 99.191406 103.808594 98.898438 C 100.921875 98.539062 98.324219 100.226562 96.886719 102.652344 C 96.144531 103.910156 95.761719 105.355469 95.75 106.8125 C 95.742188 107.535156 95.863281 108.222656 96.097656 108.867188 C 96.460938 109.855469 97.027344 110.539062 97.472656 111 C 99.613281 113.203125 102.371094 113.765625 104.398438 115.789062 C 107.480469 118.875 108.546875 121.042969 109.34375 123.949219 C 109.539062 124.660156 110.601562 124.625 110.882812 124.007812 C 111.515625 122.617188 112.152344 121.21875 112.957031 119.917969 C 113.714844 118.691406 114.671875 117.625 115.757812 116.683594 C 116.882812 115.710938 118.066406 114.8125 119.128906 113.769531 C 120.191406 112.71875 121.074219 111.488281 121.746094 110.15625 C 122.996094 107.679688 123.894531 104.207031 122.488281 101.617188 " fill-opacity="1" fill-rule="nonzero"/></g><path fill="#8c8164" d="M 216.128906 96.425781 C 213.914062 95.117188 211.984375 93.289062 210.558594 91.140625 C 209.535156 89.605469 207.464844 89.191406 205.929688 90.210938 C 204.394531 91.230469 203.976562 93.300781 204.996094 94.835938 C 206.980469 97.820312 209.660156 100.359375 212.742188 102.179688 C 213.914062 102.863281 214.636719 104.125 214.644531 105.511719 C 214.644531 109.429688 213.34375 113.117188 210.898438 116.167969 C 210.660156 116.472656 210.277344 116.609375 209.898438 116.535156 C 202.074219 114.878906 196.394531 107.863281 196.394531 99.847656 C 196.394531 99.5 196.402344 99.15625 196.421875 98.8125 C 196.527344 96.976562 195.125 95.394531 193.285156 95.289062 C 191.433594 95.171875 189.863281 96.582031 189.753906 98.425781 C 189.726562 98.894531 189.71875 99.367188 189.71875 99.847656 C 189.71875 111 197.625 120.765625 208.523438 123.066406 C 209.058594 123.179688 209.59375 123.230469 210.121094 123.230469 C 212.425781 123.230469 214.625 122.199219 216.109375 120.34375 C 219.464844 116.152344 221.316406 110.886719 221.316406 105.460938 C 221.3125 101.769531 219.328125 98.308594 216.128906 96.425781 " fill-opacity="1" fill-rule="nonzero"/><g clip-path="url(#7a97a72a6b)"><path fill="#8c8164" d="M 296.09375 181.722656 C 294.25 181.722656 292.757812 183.222656 292.757812 185.0625 C 292.757812 197.816406 287.109375 209.871094 277.621094 218.125 C 279.265625 210.003906 280.070312 201.511719 280.070312 192.40625 C 280.070312 154.980469 263.601562 119.710938 234.882812 95.644531 C 225.621094 87.882812 214.449219 82.605469 202.558594 80.382812 L 202.210938 80.324219 C 190.703125 78.210938 178.863281 83.070312 172.050781 92.710938 C 169.332031 96.5625 167.0625 99.980469 165.3125 102.875 C 163.164062 106.429688 162.839844 110.824219 164.453125 114.632812 C 165.074219 116.097656 165.726562 117.570312 166.414062 119.03125 C 164.6875 121.894531 162.703125 124.851562 160.125 128.394531 C 158.8125 130.203125 158.355469 132.484375 158.871094 134.660156 C 159.390625 136.839844 160.832031 138.683594 162.820312 139.710938 C 165.902344 141.296875 169.074219 142.828125 170.300781 143.410156 C 175.375 145.839844 181.324219 145.652344 186.191406 142.914062 C 188.742188 141.480469 191.367188 140.125 193.996094 138.894531 C 194.5625 138.628906 195.003906 138.878906 195.21875 139.054688 C 195.4375 139.230469 195.785156 139.621094 195.644531 140.234375 C 194.378906 145.796875 192.699219 151.316406 190.640625 156.636719 C 186.59375 167.125 188.058594 178.730469 194.554688 187.667969 C 195.519531 188.996094 196.46875 190.359375 197.378906 191.730469 L 197.378906 222.671875 L 191.0625 222.671875 C 189.21875 222.671875 187.726562 224.167969 187.726562 226.011719 C 187.726562 227.855469 189.21875 229.347656 191.0625 229.347656 L 200.714844 229.347656 C 202.5625 229.347656 204.054688 227.855469 204.054688 226.011719 L 204.054688 190.730469 C 204.054688 190.082031 203.863281 189.445312 203.507812 188.902344 C 202.375 187.164062 201.179688 185.429688 199.957031 183.746094 C 194.796875 176.644531 193.644531 167.40625 196.871094 159.039062 C 199.042969 153.421875 200.816406 147.589844 202.152344 141.714844 C 202.828125 138.773438 201.769531 135.757812 199.40625 133.855469 C 197.046875 131.953125 193.890625 131.570312 191.164062 132.851562 C 188.382812 134.152344 185.609375 135.578125 182.917969 137.09375 C 179.9375 138.765625 176.300781 138.878906 173.179688 137.386719 C 171.984375 136.816406 168.882812 135.324219 165.882812 133.773438 C 165.527344 133.59375 165.410156 133.285156 165.367188 133.113281 C 165.324219 132.921875 165.308594 132.621094 165.527344 132.324219 C 168.703125 127.957031 171.03125 124.421875 173.078125 120.859375 C 173.632812 119.898438 173.675781 118.726562 173.191406 117.730469 C 172.277344 115.855469 171.40625 113.9375 170.601562 112.03125 C 169.824219 110.191406 169.980469 108.058594 171.023438 106.332031 C 172.695312 103.570312 174.875 100.289062 177.503906 96.570312 C 182.820312 89.046875 192.042969 85.246094 201.007812 86.890625 L 201.34375 86.949219 C 212.09375 88.960938 222.207031 93.742188 230.59375 100.765625 C 257.792969 123.554688 273.394531 156.960938 273.394531 192.40625 C 273.394531 204.226562 271.972656 214.914062 269.054688 225.085938 C 268.675781 226.394531 269.128906 227.796875 270.203125 228.636719 C 270.804688 229.109375 271.53125 229.347656 272.261719 229.347656 C 272.832031 229.347656 273.402344 229.203125 273.921875 228.90625 C 289.652344 219.894531 299.433594 203.09375 299.433594 185.0625 C 299.433594 183.222656 297.9375 181.722656 296.09375 181.722656 " fill-opacity="1" fill-rule="nonzero"/></g><path fill="#8c8164" d="M 244.476562 184.617188 C 234.355469 184.617188 226.117188 192.851562 226.117188 202.976562 C 226.117188 211.035156 231.074219 218.015625 235.554688 222.671875 L 221.109375 222.671875 C 219.265625 222.671875 217.773438 224.167969 217.773438 226.011719 C 217.773438 227.855469 219.265625 229.347656 221.109375 229.347656 L 244.476562 229.347656 C 245.941406 229.347656 247.234375 228.394531 247.664062 226.996094 C 248.101562 225.597656 247.570312 224.082031 246.363281 223.253906 C 246.230469 223.164062 232.792969 213.832031 232.792969 202.976562 C 232.792969 196.535156 238.039062 191.292969 244.476562 191.292969 C 250.917969 191.292969 256.164062 196.535156 256.164062 202.976562 C 256.164062 204.820312 257.65625 206.316406 259.5 206.316406 C 261.347656 206.316406 262.839844 204.820312 262.839844 202.976562 C 262.839844 192.851562 254.605469 184.617188 244.476562 184.617188 " fill-opacity="1" fill-rule="nonzero"/><g clip-path="url(#f92bfc3557)"><path fill="#8c8164" d="M 106.808594 216.152344 C 109.519531 212.148438 113.859375 209.855469 118.710938 209.855469 C 121.9375 209.855469 128.039062 211.296875 128.039062 216.75 C 128.039062 220.609375 122.917969 223.722656 119.222656 224.492188 C 114.832031 225.398438 110.265625 224.363281 106.714844 221.644531 C 105.757812 220.910156 104.910156 220.085938 104.179688 219.1875 C 105.132812 218.347656 106.007812 217.332031 106.808594 216.152344 Z M 177.613281 222.644531 C 176.8125 222.644531 176.058594 222.636719 175.324219 222.632812 C 175.269531 222.632812 175.210938 222.628906 175.152344 222.628906 C 178.242188 210.160156 179.285156 196.210938 178.167969 181.988281 C 178.054688 180.546875 177.890625 179.09375 177.6875 177.652344 C 179.1875 173.480469 179.945312 169.101562 179.945312 164.625 L 179.945312 164.179688 C 179.882812 158.742188 175.988281 154.121094 170.6875 153.195312 C 169.800781 153.035156 168.914062 152.84375 168.042969 152.617188 C 164.445312 147.9375 160.082031 144.632812 155.050781 142.773438 C 154.214844 142.46875 153.289062 142.503906 152.480469 142.882812 C 151.667969 143.261719 151.046875 143.953125 150.75 144.792969 C 149.828125 147.398438 149.1875 150.101562 148.835938 152.84375 C 148.167969 153.175781 147.503906 153.523438 146.855469 153.890625 C 144.632812 152.945312 142.328125 152.207031 139.976562 151.691406 C 138.980469 151.472656 137.949219 151.714844 137.15625 152.359375 L 136.480469 152.90625 C 135.699219 153.539062 135.242188 154.5 135.25 155.511719 L 135.25 156.160156 C 135.253906 161.550781 136.886719 166.945312 139.96875 171.765625 C 140.777344 173.03125 141.507812 174.359375 142.132812 175.726562 C 143.46875 178.644531 142.273438 182.074219 139.414062 183.539062 C 135.714844 185.429688 130.957031 186.566406 126.023438 186.746094 C 125.203125 186.773438 124.164062 186.746094 123.480469 186.675781 C 120.761719 186.378906 118.023438 186.554688 115.328125 187.195312 C 110.34375 188.371094 105.628906 190.75 101.695312 194.066406 C 101.648438 194.113281 101.597656 194.15625 101.542969 194.203125 C 101.402344 194.335938 101.273438 194.480469 101.160156 194.632812 C 96.464844 198.984375 94.007812 205.097656 94.390625 211.539062 C 94.484375 213.078125 94.75 214.589844 95.167969 216.042969 C 94.628906 216.113281 94.074219 216.136719 93.527344 216.121094 C 90.613281 216.019531 88 214.796875 86.152344 212.664062 C 84.238281 210.453125 83.324219 207.441406 83.65625 204.390625 C 84.125 200.085938 86.550781 195.769531 90.144531 192.84375 C 90.992188 192.152344 92.042969 191.550781 93.144531 190.914062 C 96.285156 189.105469 100.585938 186.632812 101.019531 180.585938 C 101.226562 177.675781 100.234375 174.910156 98.21875 172.789062 C 96.105469 170.570312 93.097656 169.335938 90.011719 169.40625 C 85.011719 169.515625 82.230469 173.078125 81.367188 176.09375 C 80.859375 177.871094 81.886719 179.71875 83.660156 180.226562 C 85.4375 180.734375 87.28125 179.707031 87.785156 177.933594 C 88.023438 177.105469 88.625 176.113281 90.160156 176.082031 C 91.378906 176.019531 92.5625 176.53125 93.382812 177.394531 C 93.878906 177.914062 94.453125 178.816406 94.363281 180.109375 C 94.195312 182.394531 92.984375 183.300781 89.8125 185.125 C 88.53125 185.867188 87.199219 186.632812 85.929688 187.664062 C 80.929688 191.738281 77.6875 197.570312 77.019531 203.664062 C 76.488281 208.558594 77.980469 213.429688 81.109375 217.042969 C 84.078125 220.464844 88.214844 222.46875 92.800781 222.75 C 92.996094 222.789062 93.203125 222.8125 93.402344 222.8125 C 93.457031 222.8125 93.515625 222.792969 93.570312 222.789062 C 95.109375 222.816406 96.664062 222.644531 98.152344 222.257812 C 99.390625 224.015625 100.902344 225.597656 102.652344 226.945312 C 106.542969 229.914062 111.265625 231.492188 116.078125 231.492188 C 117.578125 231.492188 119.082031 231.335938 120.574219 231.027344 C 123.53125 230.417969 126.570312 229.042969 129.066406 227.089844 C 133.035156 228.511719 137.523438 229.257812 142.171875 229.257812 C 144.992188 229.257812 147.769531 228.980469 150.421875 228.4375 C 152.226562 228.066406 153.394531 226.304688 153.023438 224.5 C 152.65625 222.691406 150.886719 221.53125 149.082031 221.898438 C 146.871094 222.355469 144.542969 222.582031 142.171875 222.582031 C 139.175781 222.582031 136.289062 222.210938 133.632812 221.515625 C 134.3125 220.042969 134.714844 218.449219 134.714844 216.75 C 134.714844 207.84375 126.664062 203.175781 118.710938 203.175781 C 111.601562 203.175781 105.25 206.542969 101.28125 212.410156 C 101.253906 212.449219 101.226562 212.480469 101.203125 212.519531 C 101.132812 212.0625 101.085938 211.605469 101.058594 211.136719 C 100.78125 206.554688 102.605469 202.199219 106.066406 199.199219 C 106.210938 199.078125 106.34375 198.9375 106.460938 198.789062 C 109.503906 196.34375 113.085938 194.585938 116.863281 193.691406 C 118.820312 193.226562 120.804688 193.105469 122.773438 193.3125 C 123.777344 193.421875 125.113281 193.457031 126.265625 193.417969 C 132.148438 193.203125 137.902344 191.804688 142.449219 189.484375 C 148.503906 186.390625 151.03125 179.128906 148.203125 172.945312 C 147.449219 171.300781 146.566406 169.691406 145.589844 168.164062 C 143.796875 165.359375 142.632812 162.316406 142.160156 159.234375 C 143.339844 159.640625 144.496094 160.113281 145.621094 160.660156 C 146.652344 161.15625 147.871094 161.089844 148.847656 160.476562 C 150.257812 159.589844 151.75 158.804688 153.285156 158.144531 C 154.421875 157.65625 155.195312 156.570312 155.289062 155.335938 C 155.414062 153.734375 155.652344 152.152344 156.007812 150.59375 C 158.757812 152.210938 161.210938 154.515625 163.332031 157.464844 C 163.765625 158.070312 164.378906 158.503906 165.085938 158.71875 C 166.539062 159.152344 168.035156 159.507812 169.535156 159.769531 C 171.671875 160.144531 173.238281 162.027344 173.269531 164.273438 L 173.269531 164.625 C 173.269531 168.582031 172.554688 172.441406 171.144531 176.09375 C 170.9375 176.640625 170.871094 177.230469 170.960938 177.808594 C 171.203125 179.367188 171.386719 180.953125 171.511719 182.511719 C 172.695312 197.585938 171.335938 212.296875 167.589844 225.039062 C 167.289062 226.058594 167.492188 227.164062 168.140625 228.011719 C 168.785156 228.855469 169.808594 229.324219 170.863281 229.316406 C 172.46875 229.285156 173.839844 229.292969 175.273438 229.308594 C 176.027344 229.3125 176.792969 229.324219 177.613281 229.324219 C 179.457031 229.324219 180.949219 227.824219 180.949219 225.984375 C 180.949219 224.140625 179.457031 222.644531 177.613281 222.644531 " fill-opacity="1" fill-rule="nonzero"/></g><g fill="#8c8164" fill-opacity="1"><g transform="translate(2.086773, 284.63916)"><g><path d="M 13.5 -0.09375 C 12.882812 -0.09375 12.332031 -0.242188 11.84375 -0.546875 C 11.363281 -0.859375 11.039062 -1.289062 10.875 -1.84375 C 10.195312 -4.082031 9.273438 -7.757812 8.109375 -12.875 C 8.304688 -12 7.851562 -13.941406 6.75 -18.703125 C 5.90625 -22.222656 4.722656 -26.59375 3.203125 -31.8125 C 3.140625 -32.070312 3.109375 -32.328125 3.109375 -32.578125 C 3.109375 -33.035156 3.273438 -33.414062 3.609375 -33.71875 C 3.953125 -34.03125 4.429688 -34.1875 5.046875 -34.1875 C 5.535156 -34.1875 5.914062 -34.082031 6.1875 -33.875 C 6.46875 -33.664062 6.671875 -33.316406 6.796875 -32.828125 C 8.347656 -27.191406 9.53125 -22.753906 10.34375 -19.515625 C 10.757812 -17.804688 11.128906 -16.207031 11.453125 -14.71875 C 12.109375 -11.863281 12.644531 -9.660156 13.0625 -8.109375 C 13.476562 -6.554688 13.769531 -5.78125 13.9375 -5.78125 C 14.101562 -5.78125 14.347656 -6.132812 14.671875 -6.84375 C 14.992188 -7.5625 15.394531 -8.484375 15.875 -9.609375 L 17.09375 -12.4375 L 17.53125 -13.40625 C 18.5625 -15.863281 19.335938 -17.550781 19.859375 -18.46875 C 20.378906 -19.394531 20.863281 -19.859375 21.3125 -19.859375 C 21.769531 -19.859375 22.25 -19.476562 22.75 -18.71875 C 23.25 -17.957031 23.988281 -16.570312 24.96875 -14.5625 C 25.21875 -14.082031 25.460938 -13.609375 25.703125 -13.140625 C 25.953125 -12.671875 26.175781 -12.238281 26.375 -11.84375 C 26.59375 -11.425781 26.820312 -10.96875 27.0625 -10.46875 C 27.3125 -9.96875 27.582031 -9.457031 27.875 -8.9375 C 28.332031 -8.03125 28.722656 -7.273438 29.046875 -6.671875 C 29.367188 -6.078125 29.59375 -5.78125 29.71875 -5.78125 C 29.8125 -5.78125 30.035156 -6.570312 30.390625 -8.15625 C 30.753906 -9.738281 31.144531 -11.519531 31.5625 -13.5 C 32.238281 -16.96875 32.644531 -18.957031 32.78125 -19.46875 C 33.6875 -23.675781 34.691406 -28.144531 35.796875 -32.875 C 35.890625 -33.300781 36.097656 -33.617188 36.421875 -33.828125 C 36.742188 -34.035156 37.132812 -34.140625 37.59375 -34.140625 C 38.132812 -34.140625 38.59375 -33.976562 38.96875 -33.65625 C 39.34375 -33.332031 39.53125 -32.894531 39.53125 -32.34375 C 39.53125 -32.144531 39.515625 -31.984375 39.484375 -31.859375 C 38.472656 -28.003906 37.4375 -23.632812 36.375 -18.75 L 34.71875 -10.921875 C 34.132812 -7.847656 33.519531 -4.921875 32.875 -2.140625 C 32.582031 -0.835938 31.742188 -0.1875 30.359375 -0.1875 C 29.773438 -0.1875 29.210938 -0.410156 28.671875 -0.859375 C 28.140625 -1.316406 27.570312 -2.046875 26.96875 -3.046875 C 26.375 -4.054688 25.59375 -5.535156 24.625 -7.484375 C 24.132812 -8.453125 23.566406 -9.710938 22.921875 -11.265625 C 22.628906 -11.972656 22.351562 -12.601562 22.09375 -13.15625 C 21.832031 -13.707031 21.65625 -13.984375 21.5625 -13.984375 C 21.363281 -13.984375 20.828125 -12.867188 19.953125 -10.640625 C 19.210938 -8.753906 18.695312 -7.488281 18.40625 -6.84375 C 17.5625 -4.9375 16.878906 -3.515625 16.359375 -2.578125 C 15.847656 -1.640625 15.378906 -0.988281 14.953125 -0.625 C 14.535156 -0.269531 14.050781 -0.09375 13.5 -0.09375 Z M 13.5 -0.09375 "/></g></g></g><g fill="#8c8164" fill-opacity="1"><g transform="translate(44.714474, 284.63916)"><g><path d="M 24.28125 -18.453125 C 24.738281 -16.640625 25.046875 -14.390625 25.203125 -11.703125 C 25.367188 -9.015625 25.453125 -5.597656 25.453125 -1.453125 C 25.453125 -1.035156 25.28125 -0.6875 24.9375 -0.40625 C 24.59375 -0.132812 24.144531 0 23.59375 0 C 23.050781 0 22.609375 -0.132812 22.265625 -0.40625 C 21.921875 -0.6875 21.75 -1.101562 21.75 -1.65625 C 21.75 -10.164062 21.394531 -15.570312 20.6875 -17.875 C 20.300781 -19.195312 19.742188 -20.15625 19.015625 -20.75 C 18.285156 -21.351562 17.304688 -21.65625 16.078125 -21.65625 C 14.390625 -21.65625 12.960938 -21.160156 11.796875 -20.171875 C 10.628906 -19.191406 9.753906 -17.9375 9.171875 -16.40625 C 8.585938 -14.882812 8.296875 -13.300781 8.296875 -11.65625 L 8.296875 -1.40625 C 8.296875 -1.019531 8.117188 -0.695312 7.765625 -0.4375 C 7.410156 -0.175781 6.972656 -0.046875 6.453125 -0.046875 C 5.910156 -0.046875 5.46875 -0.175781 5.125 -0.4375 C 4.78125 -0.695312 4.609375 -1.035156 4.609375 -1.453125 C 4.609375 -8.160156 4.691406 -14.472656 4.859375 -20.390625 C 5.015625 -25.703125 5.273438 -31.046875 5.640625 -36.421875 C 5.734375 -37.554688 6.347656 -38.125 7.484375 -38.125 C 7.992188 -38.125 8.421875 -38 8.765625 -37.75 C 9.109375 -37.507812 9.265625 -37.179688 9.234375 -36.765625 L 8.890625 -29.96875 C 8.691406 -25.789062 8.53125 -22.742188 8.40625 -20.828125 C 9.207031 -22.023438 10.269531 -23.019531 11.59375 -23.8125 C 12.925781 -24.613281 14.582031 -25.015625 16.5625 -25.015625 C 18.695312 -25.015625 20.367188 -24.476562 21.578125 -23.40625 C 22.796875 -22.332031 23.695312 -20.679688 24.28125 -18.453125 Z M 24.28125 -18.453125 "/></g></g></g><g fill="#8c8164" fill-opacity="1"><g transform="translate(72.0972, 284.63916)"><g><path d="M 8.15625 -27.484375 C 7.3125 -27.484375 6.597656 -27.765625 6.015625 -28.328125 C 5.429688 -28.898438 5.140625 -29.625 5.140625 -30.5 C 5.140625 -31.375 5.429688 -32.09375 6.015625 -32.65625 C 6.597656 -33.226562 7.34375 -33.515625 8.25 -33.515625 C 9.125 -33.515625 9.84375 -33.238281 10.40625 -32.6875 C 10.976562 -32.132812 11.265625 -31.421875 11.265625 -30.546875 C 11.265625 -29.671875 10.960938 -28.941406 10.359375 -28.359375 C 9.765625 -27.773438 9.03125 -27.484375 8.15625 -27.484375 Z M 7.4375 -0.296875 C 6.851562 -0.296875 6.390625 -0.441406 6.046875 -0.734375 C 5.703125 -1.023438 5.53125 -1.410156 5.53125 -1.890625 L 6.015625 -22.53125 C 6.015625 -23.082031 6.1875 -23.503906 6.53125 -23.796875 C 6.875 -24.085938 7.335938 -24.234375 7.921875 -24.234375 C 8.503906 -24.234375 8.960938 -24.085938 9.296875 -23.796875 C 9.640625 -23.503906 9.8125 -23.066406 9.8125 -22.484375 L 9.328125 -1.890625 C 9.296875 -1.367188 9.109375 -0.972656 8.765625 -0.703125 C 8.421875 -0.429688 7.976562 -0.296875 7.4375 -0.296875 Z M 7.4375 -0.296875 "/></g></g></g><g fill="#8c8164" fill-opacity="1"><g transform="translate(86.95379, 284.63916)"><g><path d="M 11.890625 0.25 C 9.691406 0.25 7.816406 -0.289062 6.265625 -1.375 C 4.710938 -2.46875 3.5 -3.851562 2.625 -5.53125 C 2.394531 -5.988281 2.28125 -6.296875 2.28125 -6.453125 C 2.28125 -6.910156 2.484375 -7.304688 2.890625 -7.640625 C 3.296875 -7.984375 3.738281 -8.15625 4.21875 -8.15625 C 4.539062 -8.15625 4.789062 -8.066406 4.96875 -7.890625 C 5.15625 -7.710938 5.410156 -7.394531 5.734375 -6.9375 C 6.535156 -5.707031 7.390625 -4.726562 8.296875 -4 C 9.203125 -3.269531 10.398438 -2.90625 11.890625 -2.90625 C 13.285156 -2.90625 14.441406 -3.242188 15.359375 -3.921875 C 16.285156 -4.609375 16.75 -5.46875 16.75 -6.5 C 16.75 -7.25 16.5 -7.878906 16 -8.390625 C 15.5 -8.910156 14.882812 -9.332031 14.15625 -9.65625 C 13.425781 -9.988281 12.382812 -10.394531 11.03125 -10.875 C 9.3125 -11.488281 7.925781 -12.046875 6.875 -12.546875 C 5.820312 -13.054688 4.921875 -13.769531 4.171875 -14.6875 C 3.429688 -15.613281 3.0625 -16.789062 3.0625 -18.21875 C 3.0625 -19.476562 3.40625 -20.648438 4.09375 -21.734375 C 4.789062 -22.816406 5.785156 -23.679688 7.078125 -24.328125 C 8.378906 -24.972656 9.875 -25.296875 11.5625 -25.296875 C 13.238281 -25.296875 14.722656 -24.972656 16.015625 -24.328125 C 17.316406 -23.679688 18.320312 -22.820312 19.03125 -21.75 C 19.75 -20.6875 20.109375 -19.507812 20.109375 -18.21875 C 20.109375 -17.5625 19.984375 -17.085938 19.734375 -16.796875 C 19.492188 -16.503906 19.066406 -16.359375 18.453125 -16.359375 C 17.804688 -16.359375 17.375 -16.476562 17.15625 -16.71875 C 16.945312 -16.96875 16.828125 -17.285156 16.796875 -17.671875 C 16.671875 -19.191406 16.140625 -20.316406 15.203125 -21.046875 C 14.265625 -21.773438 13.050781 -22.140625 11.5625 -22.140625 C 9.8125 -22.140625 8.570312 -21.726562 7.84375 -20.90625 C 7.113281 -20.082031 6.75 -19.203125 6.75 -18.265625 C 6.75 -17.160156 7.222656 -16.304688 8.171875 -15.703125 C 9.128906 -15.109375 10.613281 -14.457031 12.625 -13.75 C 14.34375 -13.132812 15.71875 -12.566406 16.75 -12.046875 C 17.789062 -11.523438 18.675781 -10.8125 19.40625 -9.90625 C 20.132812 -9 20.5 -7.863281 20.5 -6.5 C 20.5 -4.394531 19.671875 -2.742188 18.015625 -1.546875 C 16.367188 -0.347656 14.328125 0.25 11.890625 0.25 Z M 11.890625 0.25 "/></g></g></g><g fill="#8c8164" fill-opacity="1"><g transform="translate(110.549533, 284.63916)"><g><path d="M 6.40625 0.25 C 5.894531 0.25 5.457031 0.117188 5.09375 -0.140625 C 4.738281 -0.398438 4.5625 -0.722656 4.5625 -1.109375 L 4.5625 -35.453125 C 4.5625 -35.972656 4.722656 -36.378906 5.046875 -36.671875 C 5.367188 -36.960938 5.820312 -37.109375 6.40625 -37.109375 C 6.988281 -37.109375 7.445312 -36.96875 7.78125 -36.6875 C 8.125 -36.414062 8.296875 -36.003906 8.296875 -35.453125 L 8.203125 -18.265625 L 11.75 -20.25 C 16.632812 -23 19.875 -24.859375 21.46875 -25.828125 C 21.945312 -26.117188 22.316406 -26.265625 22.578125 -26.265625 C 23.035156 -26.265625 23.429688 -26.03125 23.765625 -25.5625 C 24.109375 -25.09375 24.28125 -24.582031 24.28125 -24.03125 C 24.28125 -23.675781 23.925781 -23.289062 23.21875 -22.875 L 8.25 -13.984375 L 23.40625 -3.203125 C 23.726562 -2.941406 23.890625 -2.585938 23.890625 -2.140625 C 23.890625 -1.648438 23.6875 -1.203125 23.28125 -0.796875 C 22.875 -0.390625 22.460938 -0.1875 22.046875 -0.1875 C 21.660156 -0.1875 21.175781 -0.367188 20.59375 -0.734375 L 15.59375 -4.21875 C 13.226562 -5.96875 10.78125 -7.703125 8.25 -9.421875 L 8.203125 -1.171875 C 8.203125 -0.742188 8.03125 -0.398438 7.6875 -0.140625 C 7.351562 0.117188 6.925781 0.25 6.40625 0.25 Z M 6.40625 0.25 "/></g></g></g><g fill="#8c8164" fill-opacity="1"><g transform="translate(136.33008, 284.63916)"><g><path d="M 15.546875 0.1875 C 12.890625 0.1875 10.597656 -0.382812 8.671875 -1.53125 C 6.742188 -2.675781 5.285156 -4.195312 4.296875 -6.09375 C 3.304688 -7.988281 2.8125 -10.050781 2.8125 -12.28125 C 2.8125 -14.582031 3.328125 -16.695312 4.359375 -18.625 C 5.398438 -20.550781 6.875 -22.078125 8.78125 -23.203125 C 10.695312 -24.335938 12.898438 -24.90625 15.390625 -24.90625 C 17.597656 -24.90625 19.570312 -24.457031 21.3125 -23.5625 C 23.0625 -22.675781 24.421875 -21.441406 25.390625 -19.859375 C 26.367188 -18.273438 26.859375 -16.460938 26.859375 -14.421875 C 26.859375 -13.453125 26.742188 -12.765625 26.515625 -12.359375 C 26.285156 -11.953125 25.71875 -11.734375 24.8125 -11.703125 L 6.3125 -11.3125 C 6.3125 -10.082031 6.679688 -8.816406 7.421875 -7.515625 C 8.171875 -6.222656 9.234375 -5.140625 10.609375 -4.265625 C 11.984375 -3.398438 13.578125 -2.96875 15.390625 -2.96875 C 16.753906 -2.96875 17.921875 -3.164062 18.890625 -3.5625 C 19.859375 -3.96875 20.617188 -4.429688 21.171875 -4.953125 C 21.722656 -5.472656 22.390625 -6.203125 23.171875 -7.140625 C 23.390625 -7.429688 23.742188 -7.578125 24.234375 -7.578125 C 24.648438 -7.578125 25.046875 -7.414062 25.421875 -7.09375 C 25.796875 -6.769531 25.984375 -6.394531 25.984375 -5.96875 C 25.984375 -5.644531 25.851562 -5.304688 25.59375 -4.953125 C 24.550781 -3.523438 23.296875 -2.3125 21.828125 -1.3125 C 20.359375 -0.3125 18.265625 0.1875 15.546875 0.1875 Z M 23.21875 -14.671875 C 23.539062 -14.671875 23.703125 -14.894531 23.703125 -15.34375 C 23.703125 -17.289062 22.921875 -18.867188 21.359375 -20.078125 C 19.804688 -21.296875 17.847656 -21.90625 15.484375 -21.90625 C 13.710938 -21.90625 12.128906 -21.453125 10.734375 -20.546875 C 9.335938 -19.640625 8.25 -18.566406 7.46875 -17.328125 C 6.695312 -16.097656 6.3125 -15.066406 6.3125 -14.234375 Z M 23.21875 -14.671875 "/></g></g></g><g fill="#8c8164" fill-opacity="1"><g transform="translate(166.383094, 284.63916)"><g><path d="M 14.859375 -24.96875 C 16.929688 -24.96875 18.550781 -24.3125 19.71875 -23 C 20.882812 -21.6875 21.46875 -20.09375 21.46875 -18.21875 C 21.46875 -16.4375 20.929688 -15.035156 19.859375 -14.015625 C 18.796875 -12.992188 17.421875 -12.484375 15.734375 -12.484375 C 15.085938 -12.484375 14.625 -12.578125 14.34375 -12.765625 C 14.070312 -12.960938 13.9375 -13.320312 13.9375 -13.84375 C 13.9375 -14.6875 14.34375 -15.125 15.15625 -15.15625 C 17.257812 -15.34375 18.3125 -16.378906 18.3125 -18.265625 C 18.3125 -19.265625 18.035156 -20.117188 17.484375 -20.828125 C 16.929688 -21.546875 16.039062 -21.90625 14.8125 -21.90625 C 13.519531 -21.90625 12.394531 -21.351562 11.4375 -20.25 C 10.476562 -19.144531 9.722656 -17.773438 9.171875 -16.140625 C 8.628906 -14.503906 8.304688 -12.894531 8.203125 -11.3125 C 8.015625 -8.332031 7.921875 -5.515625 7.921875 -2.859375 C 7.921875 -1.535156 7.796875 -0.660156 7.546875 -0.234375 C 7.304688 0.179688 6.832031 0.390625 6.125 0.390625 C 5.40625 0.390625 4.90625 0.222656 4.625 -0.109375 C 4.351562 -0.453125 4.21875 -1.046875 4.21875 -1.890625 L 4.171875 -11.171875 C 4.171875 -13.304688 4.007812 -16.125 3.6875 -19.625 C 3.5 -21.65625 3.382812 -23.109375 3.34375 -23.984375 C 3.3125 -24.503906 3.457031 -24.898438 3.78125 -25.171875 C 4.113281 -25.453125 4.566406 -25.59375 5.140625 -25.59375 C 6.148438 -25.59375 6.6875 -25.109375 6.75 -24.140625 C 6.945312 -22.097656 7.0625 -20.101562 7.09375 -18.15625 C 7.644531 -20.300781 8.597656 -21.972656 9.953125 -23.171875 C 11.316406 -24.367188 12.953125 -24.96875 14.859375 -24.96875 Z M 14.859375 -24.96875 "/></g></g></g><g fill="#8c8164" fill-opacity="1"><g transform="translate(190.755663, 284.63916)"><g><path d="M 13.5 -0.09375 C 12.882812 -0.09375 12.332031 -0.242188 11.84375 -0.546875 C 11.363281 -0.859375 11.039062 -1.289062 10.875 -1.84375 C 10.195312 -4.082031 9.273438 -7.757812 8.109375 -12.875 C 8.304688 -12 7.851562 -13.941406 6.75 -18.703125 C 5.90625 -22.222656 4.722656 -26.59375 3.203125 -31.8125 C 3.140625 -32.070312 3.109375 -32.328125 3.109375 -32.578125 C 3.109375 -33.035156 3.273438 -33.414062 3.609375 -33.71875 C 3.953125 -34.03125 4.429688 -34.1875 5.046875 -34.1875 C 5.535156 -34.1875 5.914062 -34.082031 6.1875 -33.875 C 6.46875 -33.664062 6.671875 -33.316406 6.796875 -32.828125 C 8.347656 -27.191406 9.53125 -22.753906 10.34375 -19.515625 C 10.757812 -17.804688 11.128906 -16.207031 11.453125 -14.71875 C 12.109375 -11.863281 12.644531 -9.660156 13.0625 -8.109375 C 13.476562 -6.554688 13.769531 -5.78125 13.9375 -5.78125 C 14.101562 -5.78125 14.347656 -6.132812 14.671875 -6.84375 C 14.992188 -7.5625 15.394531 -8.484375 15.875 -9.609375 L 17.09375 -12.4375 L 17.53125 -13.40625 C 18.5625 -15.863281 19.335938 -17.550781 19.859375 -18.46875 C 20.378906 -19.394531 20.863281 -19.859375 21.3125 -19.859375 C 21.769531 -19.859375 22.25 -19.476562 22.75 -18.71875 C 23.25 -17.957031 23.988281 -16.570312 24.96875 -14.5625 C 25.21875 -14.082031 25.460938 -13.609375 25.703125 -13.140625 C 25.953125 -12.671875 26.175781 -12.238281 26.375 -11.84375 C 26.59375 -11.425781 26.820312 -10.96875 27.0625 -10.46875 C 27.3125 -9.96875 27.582031 -9.457031 27.875 -8.9375 C 28.332031 -8.03125 28.722656 -7.273438 29.046875 -6.671875 C 29.367188 -6.078125 29.59375 -5.78125 29.71875 -5.78125 C 29.8125 -5.78125 30.035156 -6.570312 30.390625 -8.15625 C 30.753906 -9.738281 31.144531 -11.519531 31.5625 -13.5 C 32.238281 -16.96875 32.644531 -18.957031 32.78125 -19.46875 C 33.6875 -23.675781 34.691406 -28.144531 35.796875 -32.875 C 35.890625 -33.300781 36.097656 -33.617188 36.421875 -33.828125 C 36.742188 -34.035156 37.132812 -34.140625 37.59375 -34.140625 C 38.132812 -34.140625 38.59375 -33.976562 38.96875 -33.65625 C 39.34375 -33.332031 39.53125 -32.894531 39.53125 -32.34375 C 39.53125 -32.144531 39.515625 -31.984375 39.484375 -31.859375 C 38.472656 -28.003906 37.4375 -23.632812 36.375 -18.75 L 34.71875 -10.921875 C 34.132812 -7.847656 33.519531 -4.921875 32.875 -2.140625 C 32.582031 -0.835938 31.742188 -0.1875 30.359375 -0.1875 C 29.773438 -0.1875 29.210938 -0.410156 28.671875 -0.859375 C 28.140625 -1.316406 27.570312 -2.046875 26.96875 -3.046875 C 26.375 -4.054688 25.59375 -5.535156 24.625 -7.484375 C 24.132812 -8.453125 23.566406 -9.710938 22.921875 -11.265625 C 22.628906 -11.972656 22.351562 -12.601562 22.09375 -13.15625 C 21.832031 -13.707031 21.65625 -13.984375 21.5625 -13.984375 C 21.363281 -13.984375 20.828125 -12.867188 19.953125 -10.640625 C 19.210938 -8.753906 18.695312 -7.488281 18.40625 -6.84375 C 17.5625 -4.9375 16.878906 -3.515625 16.359375 -2.578125 C 15.847656 -1.640625 15.378906 -0.988281 14.953125 -0.625 C 14.535156 -0.269531 14.050781 -0.09375 13.5 -0.09375 Z M 13.5 -0.09375 "/></g></g></g><g fill="#8c8164" fill-opacity="1"><g transform="translate(233.383364, 284.63916)"><g><path d="M 14.46875 0.046875 C 10.8125 0.046875 7.773438 -0.921875 5.359375 -2.859375 C 2.953125 -4.804688 1.75 -7.851562 1.75 -12 C 1.75 -14.582031 2.238281 -16.851562 3.21875 -18.8125 C 4.207031 -20.769531 5.640625 -22.300781 7.515625 -23.40625 C 9.398438 -24.507812 11.625 -25.0625 14.1875 -25.0625 C 16.644531 -25.0625 18.851562 -24.550781 20.8125 -23.53125 C 22.769531 -22.507812 24.304688 -21.019531 25.421875 -19.0625 C 26.535156 -17.101562 27.09375 -14.765625 27.09375 -12.046875 C 27.09375 -8.097656 25.9375 -5.09375 23.625 -3.03125 C 21.3125 -0.976562 18.257812 0.046875 14.46875 0.046875 Z M 14.375 -3.015625 C 16.96875 -3.015625 19.113281 -3.78125 20.8125 -5.3125 C 22.507812 -6.851562 23.359375 -9.113281 23.359375 -12.09375 C 23.359375 -14.03125 22.976562 -15.75 22.21875 -17.25 C 21.457031 -18.757812 20.390625 -19.925781 19.015625 -20.75 C 17.640625 -21.582031 16.0625 -22 14.28125 -22 C 11.625 -22 9.492188 -21.09375 7.890625 -19.28125 C 6.285156 -17.46875 5.484375 -15.070312 5.484375 -12.09375 C 5.484375 -8.945312 6.34375 -6.644531 8.0625 -5.1875 C 9.78125 -3.738281 11.882812 -3.015625 14.375 -3.015625 Z M 14.375 -3.015625 "/></g></g></g><g fill="#8c8164" fill-opacity="1"><g transform="translate(262.174068, 284.63916)"><g><path d="M 15.4375 -24.71875 C 20.914062 -24.71875 23.65625 -20.847656 23.65625 -13.109375 L 23.65625 -1.75 C 23.65625 -0.613281 23.054688 -0.046875 21.859375 -0.046875 C 20.554688 -0.046875 19.90625 -0.597656 19.90625 -1.703125 L 19.90625 -13.15625 C 19.90625 -16.007812 19.582031 -18.109375 18.9375 -19.453125 C 18.289062 -20.796875 17.125 -21.46875 15.4375 -21.46875 C 13.65625 -21.46875 12.195312 -20.785156 11.0625 -19.421875 C 9.9375 -18.066406 9.144531 -16.285156 8.6875 -14.078125 C 8.394531 -12.585938 8.25 -10.757812 8.25 -8.59375 L 8.296875 -1.40625 C 8.296875 -0.957031 8.132812 -0.609375 7.8125 -0.359375 C 7.488281 -0.117188 7.050781 0 6.5 0 C 5.882812 0 5.414062 -0.128906 5.09375 -0.390625 C 4.769531 -0.648438 4.609375 -0.988281 4.609375 -1.40625 C 4.609375 -4.289062 4.546875 -7.804688 4.421875 -11.953125 C 4.328125 -14.347656 4.28125 -16.46875 4.28125 -18.3125 C 4.28125 -19.113281 4.1875 -19.75 4 -20.21875 C 3.820312 -20.695312 3.476562 -21.351562 2.96875 -22.1875 C 2.832031 -22.382812 2.765625 -22.613281 2.765625 -22.875 C 2.765625 -23.257812 2.984375 -23.617188 3.421875 -23.953125 C 3.859375 -24.296875 4.285156 -24.46875 4.703125 -24.46875 C 5.128906 -24.46875 5.566406 -24.160156 6.015625 -23.546875 C 6.378906 -23.035156 6.710938 -22.414062 7.015625 -21.6875 C 7.328125 -20.957031 7.484375 -20.269531 7.484375 -19.625 L 7.484375 -19.078125 C 8.066406 -20.703125 9.003906 -22.046875 10.296875 -23.109375 C 11.585938 -24.179688 13.300781 -24.71875 15.4375 -24.71875 Z M 15.4375 -24.71875 "/></g></g></g><g fill="#8c8164" fill-opacity="1"><g transform="translate(289.071273, 284.63916)"><g><path d="M 15.203125 0.1875 C 12.929688 0.1875 10.859375 -0.265625 8.984375 -1.171875 C 7.109375 -2.078125 5.601562 -3.46875 4.46875 -5.34375 C 3.332031 -7.21875 2.765625 -9.546875 2.765625 -12.328125 C 2.765625 -14.859375 3.28125 -17.046875 4.3125 -18.890625 C 5.351562 -20.734375 6.820312 -22.148438 8.71875 -23.140625 C 10.613281 -24.128906 12.820312 -24.625 15.34375 -24.625 C 17.15625 -24.625 18.75 -24.351562 20.125 -23.8125 C 21.5 -23.28125 22.59375 -22.59375 23.40625 -21.75 L 23.40625 -22.78125 C 23.53125 -27.863281 23.632812 -31.566406 23.71875 -33.890625 C 23.800781 -36.222656 23.957031 -38.554688 24.1875 -40.890625 C 24.25 -41.335938 24.441406 -41.707031 24.765625 -42 C 25.085938 -42.289062 25.507812 -42.4375 26.03125 -42.4375 C 26.613281 -42.4375 27.082031 -42.28125 27.4375 -41.96875 C 27.789062 -41.664062 27.953125 -41.273438 27.921875 -40.796875 C 27.691406 -38.429688 27.476562 -34.363281 27.28125 -28.59375 C 27.09375 -22.832031 27 -17.640625 27 -13.015625 C 27 -8.285156 27.113281 -5.566406 27.34375 -4.859375 C 27.53125 -4.140625 27.757812 -3.546875 28.03125 -3.078125 C 28.3125 -2.609375 28.613281 -2.375 28.9375 -2.375 C 29.039062 -2.375 29.09375 -2.195312 29.09375 -1.84375 C 29.09375 -1.351562 28.878906 -0.914062 28.453125 -0.53125 C 28.035156 -0.144531 27.566406 0.046875 27.046875 0.046875 C 26.691406 0.046875 26.382812 -0.03125 26.125 -0.1875 C 25.675781 -0.445312 25.210938 -0.875 24.734375 -1.46875 C 24.265625 -2.070312 23.953125 -2.910156 23.796875 -3.984375 C 22.984375 -2.691406 21.816406 -1.671875 20.296875 -0.921875 C 18.773438 -0.179688 17.078125 0.1875 15.203125 0.1875 Z M 15.109375 -3.109375 C 16.492188 -3.109375 17.8125 -3.40625 19.0625 -4 C 20.3125 -4.601562 21.320312 -5.414062 22.09375 -6.4375 C 22.875 -7.457031 23.265625 -8.566406 23.265625 -9.765625 C 23.265625 -11.179688 23.28125 -12.3125 23.3125 -13.15625 L 23.359375 -17.1875 C 22.804688 -18.226562 21.800781 -19.1875 20.34375 -20.0625 C 18.882812 -20.9375 17.21875 -21.375 15.34375 -21.375 C 12.65625 -21.375 10.5 -20.5625 8.875 -18.9375 C 7.257812 -17.320312 6.453125 -15.070312 6.453125 -12.1875 C 6.453125 -10.113281 6.878906 -8.394531 7.734375 -7.03125 C 8.597656 -5.675781 9.691406 -4.679688 11.015625 -4.046875 C 12.347656 -3.421875 13.710938 -3.109375 15.109375 -3.109375 Z M 15.109375 -3.109375 "/></g></g></g><g fill="#8c8164" fill-opacity="1"><g transform="translate(319.85256, 284.63916)"><g><path d="M 15.546875 0.1875 C 12.890625 0.1875 10.597656 -0.382812 8.671875 -1.53125 C 6.742188 -2.675781 5.285156 -4.195312 4.296875 -6.09375 C 3.304688 -7.988281 2.8125 -10.050781 2.8125 -12.28125 C 2.8125 -14.582031 3.328125 -16.695312 4.359375 -18.625 C 5.398438 -20.550781 6.875 -22.078125 8.78125 -23.203125 C 10.695312 -24.335938 12.898438 -24.90625 15.390625 -24.90625 C 17.597656 -24.90625 19.570312 -24.457031 21.3125 -23.5625 C 23.0625 -22.675781 24.421875 -21.441406 25.390625 -19.859375 C 26.367188 -18.273438 26.859375 -16.460938 26.859375 -14.421875 C 26.859375 -13.453125 26.742188 -12.765625 26.515625 -12.359375 C 26.285156 -11.953125 25.71875 -11.734375 24.8125 -11.703125 L 6.3125 -11.3125 C 6.3125 -10.082031 6.679688 -8.816406 7.421875 -7.515625 C 8.171875 -6.222656 9.234375 -5.140625 10.609375 -4.265625 C 11.984375 -3.398438 13.578125 -2.96875 15.390625 -2.96875 C 16.753906 -2.96875 17.921875 -3.164062 18.890625 -3.5625 C 19.859375 -3.96875 20.617188 -4.429688 21.171875 -4.953125 C 21.722656 -5.472656 22.390625 -6.203125 23.171875 -7.140625 C 23.390625 -7.429688 23.742188 -7.578125 24.234375 -7.578125 C 24.648438 -7.578125 25.046875 -7.414062 25.421875 -7.09375 C 25.796875 -6.769531 25.984375 -6.394531 25.984375 -5.96875 C 25.984375 -5.644531 25.851562 -5.304688 25.59375 -4.953125 C 24.550781 -3.523438 23.296875 -2.3125 21.828125 -1.3125 C 20.359375 -0.3125 18.265625 0.1875 15.546875 0.1875 Z M 23.21875 -14.671875 C 23.539062 -14.671875 23.703125 -14.894531 23.703125 -15.34375 C 23.703125 -17.289062 22.921875 -18.867188 21.359375 -20.078125 C 19.804688 -21.296875 17.847656 -21.90625 15.484375 -21.90625 C 13.710938 -21.90625 12.128906 -21.453125 10.734375 -20.546875 C 9.335938 -19.640625 8.25 -18.566406 7.46875 -17.328125 C 6.695312 -16.097656 6.3125 -15.066406 6.3125 -14.234375 Z M 23.21875 -14.671875 "/></g></g></g><g fill="#8c8164" fill-opacity="1"><g transform="translate(349.905574, 284.63916)"><g><path d="M 14.859375 -24.96875 C 16.929688 -24.96875 18.550781 -24.3125 19.71875 -23 C 20.882812 -21.6875 21.46875 -20.09375 21.46875 -18.21875 C 21.46875 -16.4375 20.929688 -15.035156 19.859375 -14.015625 C 18.796875 -12.992188 17.421875 -12.484375 15.734375 -12.484375 C 15.085938 -12.484375 14.625 -12.578125 14.34375 -12.765625 C 14.070312 -12.960938 13.9375 -13.320312 13.9375 -13.84375 C 13.9375 -14.6875 14.34375 -15.125 15.15625 -15.15625 C 17.257812 -15.34375 18.3125 -16.378906 18.3125 -18.265625 C 18.3125 -19.265625 18.035156 -20.117188 17.484375 -20.828125 C 16.929688 -21.546875 16.039062 -21.90625 14.8125 -21.90625 C 13.519531 -21.90625 12.394531 -21.351562 11.4375 -20.25 C 10.476562 -19.144531 9.722656 -17.773438 9.171875 -16.140625 C 8.628906 -14.503906 8.304688 -12.894531 8.203125 -11.3125 C 8.015625 -8.332031 7.921875 -5.515625 7.921875 -2.859375 C 7.921875 -1.535156 7.796875 -0.660156 7.546875 -0.234375 C 7.304688 0.179688 6.832031 0.390625 6.125 0.390625 C 5.40625 0.390625 4.90625 0.222656 4.625 -0.109375 C 4.351562 -0.453125 4.21875 -1.046875 4.21875 -1.890625 L 4.171875 -11.171875 C 4.171875 -13.304688 4.007812 -16.125 3.6875 -19.625 C 3.5 -21.65625 3.382812 -23.109375 3.34375 -23.984375 C 3.3125 -24.503906 3.457031 -24.898438 3.78125 -25.171875 C 4.113281 -25.453125 4.566406 -25.59375 5.140625 -25.59375 C 6.148438 -25.59375 6.6875 -25.109375 6.75 -24.140625 C 6.945312 -22.097656 7.0625 -20.101562 7.09375 -18.15625 C 7.644531 -20.300781 8.597656 -21.972656 9.953125 -23.171875 C 11.316406 -24.367188 12.953125 -24.96875 14.859375 -24.96875 Z M 14.859375 -24.96875 "/></g></g></g></svg>