<svg xmlns="http://www.w3.org/2000/svg" xmlns:xlink="http://www.w3.org/1999/xlink" width="500" zoomAndPan="magnify" viewBox="0 0 375 374.999991" height="500" preserveAspectRatio="xMidYMid meet" version="1.0"><defs><clipPath id="ecd2a17ecc"><path d="M 62.285156 40 L 307 40 L 307 361.734375 L 62.285156 361.734375 Z M 62.285156 40 " clip-rule="nonzero"/></clipPath><clipPath id="17d8ec3618"><path d="M 62.285156 38 L 308 38 L 308 361.734375 L 62.285156 361.734375 Z M 62.285156 38 " clip-rule="nonzero"/></clipPath><clipPath id="ba85b62fa1"><path d="M 288 85 L 312.785156 85 L 312.785156 93 L 288 93 Z M 288 85 " clip-rule="nonzero"/></clipPath></defs><path fill="#000000" d="M 245.761719 279.582031 C 245.78125 279.371094 246.046875 279.1875 246.550781 279.078125 C 247.054688 278.96875 247.800781 278.9375 248.726562 279.09375 C 249.652344 279.253906 250.757812 279.605469 251.90625 280.257812 C 253.054688 280.910156 254.242188 281.867188 255.25 283.179688 C 255.945312 284.097656 256.539062 285.167969 256.960938 286.347656 C 257.382812 287.527344 257.636719 288.820312 257.667969 290.15625 C 257.699219 291.433594 257.53125 292.683594 257.1875 293.851562 C 256.789062 295.1875 256.171875 296.382812 255.445312 297.390625 C 254.714844 298.402344 253.875 299.226562 253.015625 299.863281 C 252.117188 300.527344 251.210938 300.980469 250.382812 301.277344 C 249.558594 301.574219 248.8125 301.714844 248.195312 301.757812 C 247.582031 301.800781 247.097656 301.75 246.765625 301.652344 C 246.4375 301.554688 246.257812 301.414062 246.234375 301.246094 C 246.210938 301.082031 246.34375 300.902344 246.589844 300.695312 C 246.839844 300.492188 247.203125 300.261719 247.648438 299.980469 C 248.089844 299.699219 248.609375 299.359375 249.160156 298.9375 C 249.710938 298.515625 250.296875 298.011719 250.84375 297.402344 C 251.375 296.820312 251.875 296.136719 252.304688 295.359375 C 252.734375 294.585938 253.089844 293.714844 253.308594 292.792969 C 253.503906 291.996094 253.59375 291.140625 253.570312 290.261719 C 253.542969 289.339844 253.394531 288.441406 253.152344 287.605469 C 252.90625 286.769531 252.566406 285.996094 252.15625 285.3125 C 251.578125 284.324219 250.839844 283.496094 250.101562 282.824219 C 249.359375 282.152344 248.613281 281.636719 247.957031 281.230469 C 247.304688 280.824219 246.746094 280.523438 246.355469 280.265625 C 245.964844 280.007812 245.738281 279.789062 245.761719 279.582031 Z M 245.761719 279.582031 " fill-opacity="1" fill-rule="evenodd"/><path fill="#000000" d="M 213.109375 210.757812 C 212.640625 214.808594 212.148438 221.765625 211.832031 225.761719 C 211.515625 229.757812 211.382812 234.519531 211.691406 239.777344 C 212 245.039062 212.597656 250.027344 214.183594 256.691406 C 215.769531 263.355469 217.894531 270.613281 220.957031 277.144531 C 224.023438 283.679688 229.128906 290.667969 233.277344 296.273438 C 226.757812 292.792969 222.589844 290.859375 216.0625 282.113281 C 209.535156 273.367188 207.171875 264.914062 205.835938 259.207031 C 204.503906 253.496094 204.566406 246.058594 204.773438 241.207031 C 204.980469 236.351562 205.808594 231.074219 206.738281 227.035156 C 207.664062 223 208.554688 218.429688 213.109375 210.757812 Z M 213.109375 210.757812 " fill-opacity="1" fill-rule="evenodd"/><path fill="#000000" d="M 245.691406 13.457031 C 242.300781 14.753906 239.082031 15.988281 235.867188 17.671875 C 232.652344 19.351562 227.824219 22.648438 225.144531 25.074219 C 222.464844 27.5 219.269531 31.152344 217.679688 33.417969 C 216.089844 35.683594 213.359375 40.460938 211.652344 43.578125 C 211.8125 40.160156 211.949219 37.183594 213 34.050781 C 214.050781 30.921875 216.453125 25.328125 221.40625 20.984375 C 226.355469 16.640625 230.046875 15.289062 234.175781 14.160156 C 238.304688 13.03125 242.460938 13.175781 245.691406 13.453125 Z M 245.691406 13.457031 " fill-opacity="1" fill-rule="evenodd"/><path fill="#000000" d="M 256.355469 16.335938 C 254.980469 18.066406 254.671875 19.105469 253.703125 21.011719 C 252.730469 22.917969 251.894531 26.035156 251.96875 28.507812 C 252.042969 30.980469 252.339844 33.765625 253.832031 36.082031 C 255.320312 38.394531 258.296875 40.738281 260.328125 41.574219 C 257.382812 41.78125 253.007812 39.609375 251.515625 37.765625 C 250.023438 35.925781 247.367188 33.160156 247.40625 28.6875 C 247.441406 24.210938 248.90625 22.066406 250.585938 20.179688 C 252.265625 18.296875 254.433594 16.691406 256.355469 16.339844 Z M 256.355469 16.335938 " fill-opacity="1" fill-rule="evenodd"/><path fill="#000000" d="M 254.542969 13.910156 C 251.433594 15.785156 248.480469 17.5625 245.609375 19.78125 C 242.742188 22 238.5625 26.089844 236.351562 28.945312 C 234.140625 31.800781 231.632812 35.957031 230.464844 38.46875 C 229.296875 40.976562 227.445312 46.15625 226.3125 49.523438 C 225.871094 46.132812 225.484375 43.175781 225.96875 39.910156 C 226.457031 36.644531 227.839844 30.714844 231.953125 25.574219 C 236.066406 20.429688 239.460938 18.457031 243.328125 16.621094 C 247.199219 14.789062 251.3125 14.199219 254.542969 13.910156 Z M 254.542969 13.910156 " fill-opacity="1" fill-rule="evenodd"/><g clip-path="url(#ecd2a17ecc)"><path fill="#000000" d="M 268.390625 315.984375 C 256.042969 309.6875 242.140625 306.933594 228.308594 306.035156 C 214.472656 305.132812 200.59375 306.019531 186.742188 306.632812 C 172.894531 307.242188 158.949219 307.574219 145.226562 305.578125 C 131.507812 303.582031 117.921875 299.144531 106.730469 290.96875 C 97.023438 283.878906 89.371094 274.117188 84.324219 263.214844 C 79.277344 252.308594 76.804688 240.285156 76.605469 228.273438 C 76.316406 210.5625 81.011719 192.777344 90.132812 177.589844 C 99.257812 162.398438 112.792969 149.867188 128.710938 142.0625 C 139.039062 136.996094 150.222656 133.929688 160.816406 129.441406 C 171.410156 124.953125 181.75 118.710938 188.046875 109.09375 C 194.507812 99.21875 195.964844 87.035156 198.816406 75.589844 C 201.902344 63.183594 206.796875 51.230469 213.300781 40.222656 C 204.65625 46.695312 197.914062 55.664062 194.097656 65.753906 C 191.949219 71.445312 190.722656 77.4375 189.234375 83.335938 C 187.746094 89.238281 185.957031 95.140625 182.808594 100.347656 C 179.585938 105.675781 175.015625 110.117188 169.890625 113.65625 C 164.765625 117.195312 159.082031 119.867188 153.261719 122.089844 C 141.621094 126.539062 129.324219 129.261719 118.015625 134.503906 C 100.265625 142.734375 85.582031 157.085938 76.144531 174.210938 C 66.710938 191.339844 62.441406 211.128906 63.050781 230.671875 C 63.5 244.996094 66.546875 259.316406 72.742188 272.246094 C 78.9375 285.171875 88.34375 296.664062 100.273438 304.625 C 118.933594 317.078125 142.273438 320.183594 164.707031 320.5625 C 187.140625 320.9375 209.769531 318.941406 231.910156 322.582031 C 259.972656 327.195312 286.425781 341.066406 306.164062 361.519531 C 300.457031 342.074219 286.460938 325.203125 268.390625 315.988281 " fill-opacity="1" fill-rule="nonzero"/></g><g clip-path="url(#17d8ec3618)"><path stroke-linecap="butt" transform="matrix(0.409984, 0, 0, 0.409533, 33.290195, -25.909686)" fill="none" stroke-linejoin="miter" d="M 573.438591 834.839154 C 543.321153 819.463404 509.411642 812.738897 475.673633 810.545087 C 441.926096 808.341738 408.073753 810.506934 374.288104 812.004448 C 340.511984 813.492424 306.497667 814.30318 273.026437 809.429105 C 239.564734 804.55503 206.426978 793.719514 179.129774 773.755837 C 155.453143 756.443811 136.788144 732.607582 124.478201 705.986168 C 112.168258 679.355215 106.137148 649.996307 105.651229 620.666013 C 104.946171 577.41933 116.39861 533.991419 138.646069 496.906482 C 160.903055 459.812007 193.916951 429.213119 232.742816 410.155582 C 257.934371 397.784398 285.212518 390.296827 311.051965 379.337313 C 336.891412 368.377798 362.111551 353.135584 377.470396 329.652273 C 393.22941 305.539433 396.783286 275.789454 403.738595 247.842215 C 411.265572 217.548553 423.20393 188.361334 439.06775 161.482385 C 417.982685 177.28736 401.537668 199.187312 392.228989 223.824759 C 386.988688 237.722072 383.996952 252.353834 380.366853 266.756678 C 376.736754 281.169059 372.373012 295.581441 364.69359 308.296004 C 356.833139 321.306254 345.68559 332.151309 333.18509 340.793015 C 320.684591 349.434721 306.821613 355.958923 292.625162 361.386219 C 264.23226 372.250351 234.238683 378.898551 206.655645 391.698958 C 163.361233 411.796171 127.546159 446.83991 104.526947 488.655847 C 81.517262 530.481322 71.103355 578.802385 72.589695 626.522534 C 73.685394 661.499505 81.117094 696.466937 96.228216 728.038733 C 111.339338 759.60099 134.282327 787.662689 163.380289 807.101758 C 208.894683 837.50988 265.823405 845.092834 320.541674 846.01805 C 375.259942 846.933727 430.454601 842.059653 484.458283 850.949354 C 552.906139 862.214095 617.428534 896.084622 665.572607 946.027197 C 651.652462 898.545505 617.514284 857.349558 573.438591 834.848693 " stroke="#000000" stroke-width="0.729" stroke-opacity="1" stroke-miterlimit="4"/></g><path fill="#000000" d="M 179.226562 253.941406 C 179.226562 251.203125 164.703125 239.5625 156.648438 235.847656 C 146.796875 231.304688 132.203125 229.617188 123.101562 231.972656 C 114.890625 234.09375 117.578125 230.824219 127.027344 227.199219 C 137.96875 222.996094 153.070312 222.773438 160.886719 226.695312 C 166.496094 229.507812 171.765625 234.292969 175.363281 239.835938 C 178.421875 244.546875 181.976562 255.109375 180.503906 255.109375 C 179.800781 255.109375 179.226562 254.582031 179.226562 253.941406 Z M 179.226562 253.941406 " fill-opacity="1" fill-rule="nonzero"/><path fill="#000000" d="M 258.605469 143.273438 C 265.519531 146.570312 270.683594 156.277344 271.195312 163.621094 C 271.707031 170.964844 269.894531 180.550781 266.9375 185.847656 C 263.980469 191.140625 255.371094 203.640625 249.011719 217.671875 C 244.878906 226.785156 241.699219 236.546875 241.632812 245.398438 C 241.71875 253.015625 241.558594 256.792969 243.226562 265.75 C 244.890625 274.703125 246.074219 275.367188 246.867188 279.820312 C 242.550781 275.285156 239.371094 266.28125 237.308594 257.191406 C 234.976562 246.902344 233.578125 243.371094 234.605469 232.351562 C 235.632812 221.335938 239.550781 215.339844 243.96875 207.027344 C 249.242188 197.101562 255.175781 188.441406 257.5 184.929688 C 259.824219 181.417969 265.613281 172.398438 266.128906 163.980469 C 266.644531 155.558594 262.476562 149.027344 258.605469 143.273438 Z M 258.605469 143.273438 " fill-opacity="1" fill-rule="evenodd"/><path fill="#000000" d="M 272.625 68.3125 C 272.523438 68.261719 272.472656 68.128906 272.441406 67.933594 C 272.410156 67.738281 272.402344 67.476562 272.375 67.164062 C 272.347656 66.851562 272.304688 66.484375 272.203125 66.09375 C 272.101562 65.703125 271.945312 65.28125 271.695312 64.894531 C 271.46875 64.535156 271.15625 64.191406 270.769531 63.902344 C 270.382812 63.617188 269.921875 63.386719 269.441406 63.292969 C 269.042969 63.207031 268.601562 63.203125 268.164062 63.289062 C 267.730469 63.371094 267.296875 63.539062 266.941406 63.796875 C 266.578125 64.046875 266.257812 64.410156 266.019531 64.832031 C 265.828125 65.179688 265.703125 65.550781 265.65625 65.910156 C 265.535156 66.628906 265.746094 67.441406 266.0625 68.183594 C 266.429688 69.035156 267.039062 69.796875 267.640625 70.496094 C 268.710938 71.710938 269.761719 72.601562 270.5 73.257812 C 270.871094 73.589844 271.164062 73.859375 271.351562 74.085938 C 271.539062 74.308594 271.621094 74.484375 271.566406 74.613281 C 271.515625 74.738281 271.332031 74.808594 271.027344 74.8125 C 270.722656 74.816406 270.296875 74.753906 269.777344 74.605469 C 268.734375 74.304688 267.292969 73.644531 265.800781 72.449219 C 264.941406 71.769531 264.035156 70.871094 263.304688 69.625 C 262.65625 68.519531 262.242188 67.109375 262.371094 65.550781 C 262.457031 64.738281 262.703125 63.941406 263.105469 63.21875 C 263.597656 62.332031 264.296875 61.589844 265.125 61.054688 C 265.949219 60.527344 266.855469 60.230469 267.742188 60.136719 C 268.632812 60.042969 269.507812 60.152344 270.304688 60.425781 C 271.257812 60.761719 272.039062 61.3125 272.625 61.945312 C 273.210938 62.578125 273.605469 63.292969 273.828125 63.988281 C 274.066406 64.742188 274.097656 65.441406 274.03125 66.03125 C 273.964844 66.621094 273.800781 67.097656 273.613281 67.457031 C 273.425781 67.816406 273.21875 68.058594 273.046875 68.195312 C 272.871094 68.332031 272.726562 68.363281 272.625 68.3125 Z M 272.625 68.3125 " fill-opacity="1" fill-rule="evenodd"/><path stroke-linecap="round" transform="matrix(0.17741, 0, 0, 0.219269, 355.914005, 19.351374)" fill-opacity="1" fill="#000000" fill-rule="nonzero" stroke-linejoin="miter" d="M -473.258571 218.9813 C -473.258571 232.093047 -477.904408 242.728528 -483.607119 242.728528 C -489.331847 242.728528 -493.977684 232.093047 -493.977684 218.9813 C -493.977684 205.887367 -489.331847 195.251887 -483.607119 195.251887 C -477.948445 195.251887 -473.346644 205.673588 -473.258571 218.660632 L -483.607119 218.9813 Z M -473.258571 218.9813 " stroke="#000000" stroke-width="0.8" stroke-opacity="1" stroke-miterlimit="4"/><path fill="#000000" d="M 226.722656 301.953125 C 218.996094 296.132812 204.386719 295.953125 178.546875 294.628906 C 144.742188 292.902344 130.027344 288.390625 122.449219 285.664062 C 113.601562 282.480469 113.597656 284.664062 122.441406 290.128906 C 131.710938 295.855469 144.535156 300.410156 181.460938 300.546875 C 205.710938 300.636719 216.273438 298.78125 223.53125 301.886719 C 228.644531 304.078125 229.570312 304.097656 226.726562 301.953125 Z M 226.722656 301.953125 " fill-opacity="1" fill-rule="nonzero"/><path fill="#000000" d="M 259.996094 41.179688 C 263.957031 41.503906 270.542969 44.125 273.070312 46.335938 C 278.039062 51.382812 280.09375 55.816406 281.945312 61.796875 C 282.882812 64.789062 283.742188 67.773438 284.917969 70.441406 C 287.214844 75.34375 290.238281 80.089844 290.847656 85.085938 C 290.398438 93.621094 287.613281 99.203125 280.546875 103.261719 C 275.90625 105.890625 270.601562 106.859375 266.277344 109.320312 C 260.730469 112.757812 257.042969 118.261719 256.117188 124.476562 C 255.722656 127.761719 255.699219 130.988281 256.3125 134.421875 C 256.921875 137.851562 257.472656 139.941406 259.046875 142.589844 C 255.988281 140.816406 253.902344 137.417969 252.699219 134.566406 C 251.339844 131.195312 250.800781 127.535156 251.066406 124.214844 C 252.027344 116.785156 256.027344 110.394531 262.0625 106.675781 C 266.667969 103.921875 271.945312 102.878906 276.257812 100.410156 C 281.515625 97.195312 285.34375 91.523438 284.933594 85.414062 C 284.269531 80.277344 281.304688 75.96875 279.476562 71.628906 C 278.242188 68.601562 278.109375 65.683594 277.304688 62.738281 C 275.925781 57.300781 275.171875 53.636719 272.023438 49.949219 C 269.96875 46.90625 263.535156 42.882812 259.996094 41.179688 Z M 259.996094 41.179688 " fill-opacity="1" fill-rule="evenodd"/><g clip-path="url(#ba85b62fa1)"><path fill="#000000" d="M 288.871094 87.28125 L 290.511719 89.691406 C 294.277344 87.589844 299.332031 86.820312 304 87.800781 C 307.289062 88.492188 310.402344 90.027344 312.777344 92.203125 C 310.757812 89.789062 307.832031 87.839844 304.421875 86.714844 C 299.574219 85.121094 293.808594 85.265625 288.871094 87.28125 Z M 288.871094 87.28125 " fill-opacity="1" fill-rule="evenodd"/></g><path fill="#000000" d="M 287.480469 89.609375 L 287.785156 92.367188 C 290.835938 91.960938 293.988281 91.921875 297.113281 92.269531 C 302.304688 92.847656 307.417969 94.507812 311.828125 97.117188 C 307.851562 94.0625 302.910156 91.777344 297.523438 90.578125 C 294.285156 89.855469 290.890625 89.523438 287.480469 89.609375 Z M 287.480469 89.609375 " fill-opacity="1" fill-rule="evenodd"/><path fill="#000000" d="M 288.199219 92.296875 L 287.226562 94.945312 C 291.621094 95.824219 295.890625 97.304688 299.808594 99.324219 C 303.699219 101.335938 307.246094 103.890625 310.246094 106.867188 C 307.6875 103.613281 304.480469 100.671875 300.761719 98.199219 C 297.023438 95.714844 292.769531 93.707031 288.199219 92.296875 Z M 288.199219 92.296875 " fill-opacity="1" fill-rule="evenodd"/><path fill="#000000" d="M 279.46875 90.292969 L 281.335938 88.003906 C 275.9375 85.109375 270.039062 82.910156 263.902344 81.492188 C 253.550781 79.089844 242.296875 78.996094 232.371094 82.15625 C 228.289062 83.457031 224.472656 85.292969 221.101562 87.566406 C 224.609375 85.445312 228.507812 83.796875 232.597656 82.691406 C 242.539062 80.007812 253.421875 80.636719 263.21875 83.355469 C 269.035156 84.976562 274.53125 87.328125 279.46875 90.292969 Z M 279.46875 90.292969 " fill-opacity="1" fill-rule="evenodd"/><path fill="#000000" d="M 277.925781 91.914062 L 278.128906 89.152344 C 266.683594 88.796875 255.21875 89.769531 244.164062 92.015625 C 234.171875 94.042969 224.449219 97.144531 215.820312 101.71875 C 214.46875 102.4375 213.140625 103.191406 211.847656 103.976562 C 213.183594 103.242188 214.550781 102.546875 215.9375 101.882812 C 224.792969 97.671875 234.574219 95.007812 244.527344 93.398438 C 255.542969 91.621094 266.820312 91.125 277.925781 91.914062 Z M 277.925781 91.914062 " fill-opacity="1" fill-rule="evenodd"/><path fill="#000000" d="M 280.160156 93.089844 L 279.6875 90.351562 C 269.25 91.78125 259.128906 94.613281 249.828125 98.6875 C 240.527344 102.753906 231.914062 108.195312 225.8125 115.277344 C 222.746094 118.839844 220.351562 122.777344 218.726562 126.914062 C 220.5625 122.839844 223.144531 119.015625 226.34375 115.613281 C 232.710938 108.835938 241.425781 103.84375 250.71875 100.175781 C 260.023438 96.507812 270.011719 94.113281 280.160156 93.089844 Z M 280.160156 93.089844 " fill-opacity="1" fill-rule="evenodd"/></svg>